<?xml version="1.0" encoding="UTF-8"?>
<!DOCTYPE svg PUBLIC "-//W3C//DTD SVG 1.1//EN" "http://www.w3.org/Graphics/SVG/1.1/DTD/svg11.dtd">
<!-- Creator: CorelDRAW -->
<svg xmlns="http://www.w3.org/2000/svg" xml:space="preserve" width="7.2in" height="3.4in" version="1.1" style="shape-rendering:geometricPrecision; text-rendering:geometricPrecision; image-rendering:optimizeQuality; fill-rule:evenodd; clip-rule:evenodd"
viewBox="0 0 7200 3400"
 xmlns:xlink="http://www.w3.org/1999/xlink"
 xmlns:xodm="http://www.corel.com/coreldraw/odm/2003">
 <defs>
  <style type="text/css">
   <![CDATA[
    .str2 {stroke:black;stroke-width:25.31;stroke-miterlimit:2.61313}
    .str15 {stroke:#1F1B20;stroke-width:55.56;stroke-miterlimit:2.61313}
    .str17 {stroke:white;stroke-width:55.56;stroke-miterlimit:2.61313}
    .str9 {stroke:black;stroke-width:25.38;stroke-miterlimit:2.61313}
    .str12 {stroke:black;stroke-width:25.41;stroke-miterlimit:2.61313}
    .str13 {stroke:black;stroke-width:24.46;stroke-miterlimit:2.61313}
    .str11 {stroke:black;stroke-width:25.59;stroke-miterlimit:2.61313}
    .str5 {stroke:black;stroke-width:25.61;stroke-miterlimit:2.61313}
    .str10 {stroke:black;stroke-width:25.62;stroke-miterlimit:2.61313}
    .str7 {stroke:black;stroke-width:25.65;stroke-miterlimit:2.61313}
    .str16 {stroke:#FEFEFE;stroke-width:25;stroke-miterlimit:2.61313}
    .str14 {stroke:#1F1B20;stroke-width:25;stroke-miterlimit:2.61313}
    .str0 {stroke:black;stroke-width:25;stroke-miterlimit:2.61313}
    .str4 {stroke:black;stroke-width:25.03;stroke-miterlimit:2.61313}
    .str1 {stroke:black;stroke-width:24.04;stroke-miterlimit:2.61313}
    .str6 {stroke:black;stroke-width:25.12;stroke-miterlimit:2.61313}
    .str8 {stroke:black;stroke-width:25.15;stroke-miterlimit:2.61313}
    .str3 {stroke:black;stroke-width:26.17;stroke-miterlimit:2.61313}
    .fil1 {fill:none}
    .fil0 {fill:none;fill-rule:nonzero}
    .fil2 {fill:#2B2A29;fill-rule:nonzero}
    .fil3 {fill:#2B2A29;fill-rule:nonzero}
   ]]>
  </style>
 </defs>
 <g id="Layer_x0020_1">
  <metadata id="CorelCorpID_0Corel-Layer"/>
  <g id="layer1">
   <g id="layer3">
   </g>
   <polygon id="path2399" class="fil0 str0" points="229.02,91.34 7112.08,93.17 6600.55,2447.66 6008.76,3247.91 6008,3245.67 4790.51,3239.17 5149.19,1706.83 2017.54,1702.2 2019.28,3244.78 228.59,3248 "/>
   <polygon id="path13524" class="fil0 str1" points="228.7,2442.67 625.2,2444.04 "/>
   <polygon id="path13526" class="fil0 str0" points="228.8,1669.67 624.1,1668.2 "/>
   <polygon id="path13528" class="fil0 str2" points="625.2,2456.06 625.25,1655.7 "/>
   <polygon id="path13532" class="fil0 str0" points="1012.28,3246.58 1009.56,2699.46 625.25,2696.2 625.2,2456.06 625.2,2456.06 625.25,2693.59 1007.43,2700.5 "/>
   <polygon id="path14986" class="fil0 str0" points="228.76,881.87 624.15,880.75 625.25,1655.7 624.15,877.42 "/>
   <polygon id="path15016" class="fil0 str0" points="772.48,501.38 773.42,91.49 "/>
   <polygon id="path15020" class="fil0 str0" points="1033.8,501.41 1033.99,91.46 "/>
   <polygon id="path15022" class="fil0 str3" points="759.98,501.38 1046.49,501.41 "/>
   <polygon id="path15024" class="fil0 str0" points="1291.31,91.45 1289.57,501.41 "/>
   <polygon id="path15026" class="fil0 str0" points="1545,91.4 1544.42,501.46 "/>
   <polygon id="path15028" class="fil0 str0" points="2058.92,91.38 2058.06,501.48 "/>
   <polygon id="path15032" class="fil0 str0" points="3339.03,498.67 3336.31,92.17 "/>
   <polygon id="path15072" class="fil0 str0" points="3593.77,498.75 3595.31,92.08 "/>
   <polygon id="path15074" class="fil0 str0" points="3848.76,92.04 3849.59,498.8 "/>
   <polygon id="path15076" class="fil0 str0" points="4358.67,92.01 4360.2,498.83 "/>
   <polygon id="path15078" class="fil0 str0" points="4618.94,91.96 4620.08,498.87 "/>
   <path id="path15080" class="fil0 str0" d="M5131.69 91.93c0.39,181.96 -0.01,406.98 -0.01,406.98l0.01 -406.98z"/>
   <polygon id="path15082" class="fil0 str0" points="5643.21,498.93 5644.04,91.9 "/>
   <polygon id="path15084" class="fil0 str0" points="6153.3,491.69 6152.89,91.87 "/>
   <polygon id="path15086" class="fil0 str0" points="6408.28,498.96 6407.96,91.86 "/>
   <polygon id="path15088" class="fil0 str4" points="6420.78,498.96 1033.8,501.41 "/>
   <polygon id="path15090" class="fil0 str0" points="2822.78,92.08 2820.06,498.75 "/>
   <path id="path15866" class="fil0 str0" d="M1031.78 690.94c-1.57,189.64 -0.72,377.79 -0.72,377.79l0.72 -377.79z"/>
   <polygon id="path15868" class="fil0 str5" points="1289.28,1068.79 1018.33,1068.75 "/>
   <polygon id="path15870" class="fil0 str0" points="1276.78,1076.38 1276.78,698.43 1019.28,698.55 1276.78,698.43 "/>
   <polygon id="path15872" class="fil0 str0" points="1265.49,1069.09 2056.2,1069.09 2057.72,678.63 2056.82,1069.09 "/>
   <polygon id="path15874" class="fil0 str0" points="3079.66,1703.76 3081.84,1074.37 "/>
   <polygon id="path15876" class="fil0 str6" points="3081.08,1074.34 3596.18,1074.3 "/>
   <polygon id="path15878" class="fil0 str7" points="3596.18,1086.92 3596.18,683.51 "/>
   <polygon id="path15880" class="fil0 str0" points="3080.75,683.51 3081.84,1074.37 "/>
   <polygon id="path15882" class="fil0 str5" points="3068.25,683.51 3609.01,683.51 "/>
   <polygon id="path15884" class="fil0 str0" points="3338.63,1074.32 3338.63,683.51 "/>
   <polygon id="path15886" class="fil0 str8" points="4360.08,1705.67 4356.72,683.55 "/>
   <polygon id="path15890" class="fil0 str9" points="4343.08,683.52 4881.54,683.48 "/>
   <polygon id="path16618" class="fil0 str8" points="4881.53,670.8 4881.53,1705.7 "/>
   <polygon id="path16620" class="fil0 str0" points="4881.54,1074.32 4358.4,1074.32 "/>
   <polygon id="path16622" class="fil0 str0" points="4619.96,1074.32 4612.3,683.5 "/>
   <polygon id="path16624" class="fil0 str0" points="6820.15,1436.89 6423.77,1355.2 "/>
   <polygon id="path16626" class="fil0 str0" points="6709.73,1945.14 6311.2,1854.84 "/>
   <polygon id="path16628" class="fil0 str0" points="6655.93,2192.76 6260.76,2107.64 "/>
   <polygon id="path16630" class="fil0 str0" points="6600.56,2447.65 6208.94,2354.46 "/>
   <polygon id="path16632" class="fil0 str10" points="6209.05,2367.89 6260.65,2107.61 "/>
   <polygon id="path16634" class="fil0 str0" points="6260.76,2107.64 6311.2,1854.84 "/>
   <polygon id="path16638" class="fil0 str11" points="6427.3,1345.79 6311.52,1854.76 "/>
   <polygon id="path16640" class="fil0 str0" points="6349.96,2786.52 5751.63,2655.86 5806.67,2401.06 5752.67,2651.63 "/>
   <polygon id="path16642" class="fil0 str0" points="5064.09,2070.39 5633.63,2204.98 5715.52,1821.85 5633,2204.98 "/>
   <polygon id="path16644" class="fil0 str0" points="5028.18,2237.75 5604.39,2358.12 5633,2204.98 5606.17,2360.41 "/>
   <polygon id="path16646" class="fil0 str12" points="5702.22,1821.99 6104.42,1918.2 5983.18,2448.03 6103.96,1921.19 "/>
   <path id="path16648" class="fil0 str13" d="M5606.17 2360.94c390.61,81.98 390.61,81.98 390.61,81.98l-390.61 -81.98z"/>
   <polygon id="path18905" class="fil0 str0" points="2014.17,1487.78 2012.46,1071.46 "/>
  </g>
  <line class="fil1 str14" x1="3596.18" y1="1074.3" x2="4358.4" y2= "1074.3" />
  <line class="fil1 str14" x1="5513.37" y1="685.38" x2="5513.37" y2= "1072.31" />
  <line class="fil1 str14" x1="5893.54" y1="685.92" x2="5893.54" y2= "1072.3" />
  <line class="fil1 str14" x1="5513.37" y1="683.9" x2="5893.54" y2= "683.9" />
  <line class="fil1 str14" x1="5513.37" y1="1059.81" x2="5893.54" y2= "1059.81" />
  <line class="fil1 str14" x1="5516.76" y1="683.9" x2="5500.85" y2= "683.9" />
  <line class="fil1 str14" x1="5884.22" y1="683.9" x2="5906.04" y2= "683.9" />
  <line class="fil1 str15" x1="1046.13" y1="1068.39" x2="1046.13" y2= "1506.55" />
  <line class="fil1 str15" x1="1998.8" y1="1068.39" x2="1998.8" y2= "1506.55" />
  <line class="fil1 str15" x1="1046.13" y1="1679.35" x2="1046.13" y2= "2239.64" />
  <line class="fil1 str15" x1="1998.79" y1="1689.63" x2="1998.79" y2= "2238.44" />
  <line class="fil1 str14" x1="1045.7" y1="2227.11" x2="2010.44" y2= "2227.11" />
  <path class="fil2" d="M815.59 337.13l-7.33 0 0 -46.7c-1.76,1.7 -4.08,3.38 -6.94,5.06 -2.86,1.68 -5.44,2.94 -7.72,3.78l0 -7.08c4.1,-1.92 7.68,-4.25 10.75,-7 3.07,-2.74 5.25,-5.39 6.53,-7.97l4.72 0 0 59.92z"/>
  <path id="_1" class="fil2" d="M855.76 337.13l-7.33 0 0 -46.7c-1.76,1.7 -4.08,3.38 -6.94,5.06 -2.86,1.68 -5.44,2.94 -7.72,3.78l0 -7.08c4.1,-1.92 7.68,-4.25 10.75,-7 3.07,-2.74 5.25,-5.39 6.53,-7.97l4.72 0 0 59.92z"/>
  <path id="_2" class="fil2" d="M870.98 337.13l22.89 -59.67 8.68 0 24.29 59.67 -8.98 0 -6.91 -18.08 -25.12 0 -6.47 18.08 -8.38 0zm17.17 -24.5l20.33 0 -6.22 -16.54c-1.87,-5.03 -3.29,-9.18 -4.28,-12.46 -0.82,3.89 -1.91,7.71 -3.29,11.48l-6.54 17.52z"/>
  <path id="_3" class="fil2" d="M968.6 330.13l0 7 -39.5 0c-0.06,-1.76 0.24,-3.46 0.86,-5.1 1.01,-2.68 2.64,-5.33 4.87,-7.93 2.24,-2.6 5.43,-5.6 9.58,-9 6.46,-5.32 10.85,-9.53 13.14,-12.64 2.31,-3.11 3.46,-6.06 3.46,-8.83 0,-2.9 -1.04,-5.35 -3.13,-7.35 -2.08,-1.99 -4.81,-2.99 -8.15,-2.99 -3.54,0 -6.37,1.06 -8.5,3.17 -2.13,2.1 -3.19,5.02 -3.22,8.75l-7.5 -0.75c0.51,-5.61 2.46,-9.89 5.82,-12.83 3.37,-2.94 7.89,-4.42 13.57,-4.42 5.72,0 10.26,1.58 13.59,4.76 3.35,3.18 5.02,7.13 5.02,11.82 0,2.39 -0.49,4.74 -1.47,7.04 -0.97,2.32 -2.6,4.75 -4.86,7.3 -2.28,2.54 -6.04,6.06 -11.29,10.5 -4.4,3.7 -7.24,6.2 -8.48,7.52 -1.25,1.32 -2.28,2.64 -3.1,3.97l29.29 0z"/>
  <path id="_4" class="fil2" d="M976.95 285.21l0 -7 38.58 0 0 5.67c-3.79,4.04 -7.57,9.42 -11.29,16.13 -3.74,6.71 -6.61,13.61 -8.65,20.71 -1.46,4.99 -2.4,10.47 -2.8,16.42l-7.5 0c0.08,-4.69 1,-10.37 2.76,-17.03 1.76,-6.67 4.28,-13.08 7.57,-19.26 3.29,-6.18 6.79,-11.39 10.5,-15.63l-29.17 0z"/>
  <path class="fil2" d="M1073.25 337.22l-7.33 0 0 -46.7c-1.76,1.7 -4.08,3.38 -6.94,5.06 -2.86,1.68 -5.44,2.94 -7.72,3.78l0 -7.08c4.1,-1.92 7.68,-4.25 10.75,-7 3.07,-2.74 5.25,-5.39 6.53,-7.97l4.72 0 0 59.92z"/>
  <path id="_1_0" class="fil2" d="M1113.41 337.22l-7.33 0 0 -46.7c-1.76,1.7 -4.08,3.38 -6.94,5.06 -2.86,1.68 -5.44,2.94 -7.72,3.78l0 -7.08c4.1,-1.92 7.68,-4.25 10.75,-7 3.07,-2.74 5.25,-5.39 6.53,-7.97l4.72 0 0 59.92z"/>
  <path id="_2_1" class="fil2" d="M1128.63 337.22l22.89 -59.67 8.68 0 24.29 59.67 -8.98 0 -6.91 -18.08 -25.12 0 -6.47 18.08 -8.38 0zm17.17 -24.5l20.33 0 -6.22 -16.54c-1.87,-5.03 -3.29,-9.18 -4.28,-12.46 -0.82,3.89 -1.91,7.71 -3.29,11.48l-6.54 17.52z"/>
  <path id="_3_2" class="fil2" d="M1226.26 330.22l0 7 -39.5 0c-0.06,-1.76 0.24,-3.46 0.86,-5.1 1.01,-2.68 2.64,-5.33 4.87,-7.93 2.24,-2.6 5.43,-5.6 9.58,-9 6.46,-5.32 10.85,-9.53 13.14,-12.64 2.31,-3.11 3.46,-6.06 3.46,-8.83 0,-2.9 -1.04,-5.35 -3.13,-7.35 -2.08,-1.99 -4.81,-2.99 -8.15,-2.99 -3.54,0 -6.37,1.06 -8.5,3.17 -2.13,2.1 -3.19,5.02 -3.22,8.75l-7.5 -0.75c0.51,-5.61 2.46,-9.89 5.82,-12.83 3.37,-2.94 7.89,-4.42 13.57,-4.42 5.72,0 10.26,1.58 13.59,4.76 3.35,3.18 5.02,7.13 5.02,11.82 0,2.39 -0.49,4.74 -1.47,7.04 -0.97,2.32 -2.6,4.75 -4.86,7.3 -2.28,2.54 -6.04,6.06 -11.29,10.5 -4.4,3.7 -7.24,6.2 -8.48,7.52 -1.25,1.32 -2.28,2.64 -3.1,3.97l29.29 0z"/>
  <path id="_4_3" class="fil2" d="M1235.27 323.38l7 -0.58c0.6,3.31 1.74,5.7 3.42,7.18 1.68,1.48 3.83,2.24 6.47,2.24 2.25,0 4.22,-0.52 5.93,-1.56 1.71,-1.03 3.1,-2.4 4.17,-4.14 1.07,-1.72 1.97,-4.06 2.71,-6.99 0.74,-2.93 1.09,-5.92 1.09,-8.96 0,-0.32 -0.01,-0.82 -0.04,-1.47 -1.46,2.33 -3.46,4.24 -5.99,5.68 -2.53,1.46 -5.28,2.18 -8.22,2.18 -4.93,0 -9.1,-1.79 -12.52,-5.37 -3.4,-3.57 -5.11,-8.29 -5.11,-14.15 0,-6.06 1.78,-10.92 5.35,-14.61 3.56,-3.68 8.02,-5.53 13.39,-5.53 3.86,0 7.4,1.04 10.63,3.14 3.21,2.08 5.64,5.06 7.3,8.93 1.67,3.86 2.5,9.46 2.5,16.78 0,7.63 -0.82,13.7 -2.47,18.21 -1.65,4.53 -4.13,7.96 -7.39,10.32 -3.26,2.36 -7.08,3.54 -11.47,3.54 -4.67,0 -8.47,-1.29 -11.43,-3.89 -2.94,-2.59 -4.72,-6.25 -5.32,-10.94zm29.92 -26.32c0,-4.19 -1.11,-7.53 -3.33,-9.98 -2.2,-2.46 -4.9,-3.7 -8.07,-3.7 -3.28,0 -6.11,1.32 -8.5,3.97 -2.41,2.65 -3.6,6.1 -3.6,10.32 0,3.79 1.14,6.88 3.4,9.24 2.28,2.38 5.11,3.56 8.49,3.56 3.39,0 6.17,-1.18 8.35,-3.56 2.18,-2.36 3.26,-5.65 3.26,-9.85z"/>
  <path class="fil2" d="M1332.67 337.13l-7.33 0 0 -46.7c-1.76,1.7 -4.08,3.38 -6.94,5.06 -2.86,1.68 -5.44,2.94 -7.72,3.78l0 -7.08c4.1,-1.92 7.68,-4.25 10.75,-7 3.07,-2.74 5.25,-5.39 6.53,-7.97l4.72 0 0 59.92z"/>
  <path id="_1_4" class="fil2" d="M1372.84 337.13l-7.33 0 0 -46.7c-1.76,1.7 -4.08,3.38 -6.94,5.06 -2.86,1.68 -5.44,2.94 -7.72,3.78l0 -7.08c4.1,-1.92 7.68,-4.25 10.75,-7 3.07,-2.74 5.25,-5.39 6.53,-7.97l4.72 0 0 59.92z"/>
  <path id="_2_5" class="fil2" d="M1388.06 337.13l22.89 -59.67 8.68 0 24.29 59.67 -8.98 0 -6.91 -18.08 -25.12 0 -6.47 18.08 -8.38 0zm17.17 -24.5l20.33 0 -6.22 -16.54c-1.87,-5.03 -3.29,-9.18 -4.28,-12.46 -0.82,3.89 -1.91,7.71 -3.29,11.48l-6.54 17.52z"/>
  <path id="_3_6" class="fil2" d="M1447.27 321.3l7.33 -1c0.85,4.17 2.26,7.17 4.28,9 2.02,1.83 4.49,2.75 7.42,2.75 3.47,0 6.4,-1.2 8.76,-3.58 2.36,-2.39 3.54,-5.35 3.54,-8.88 0,-3.36 -1.1,-6.14 -3.31,-8.33 -2.19,-2.18 -4.98,-3.28 -8.39,-3.28 -1.39,0 -3.11,0.28 -5.18,0.82l0.82 -6.42c0.48,0.06 0.89,0.09 1.18,0.09 3.14,0 5.94,-0.82 8.46,-2.44 2.5,-1.63 3.75,-4.13 3.75,-7.5 0,-2.68 -0.91,-4.91 -2.74,-6.67 -1.82,-1.76 -4.17,-2.64 -7.04,-2.64 -2.86,0 -5.24,0.9 -7.14,2.71 -1.91,1.8 -3.13,4.51 -3.67,8.13l-7.33 -1.33c0.9,-4.92 2.93,-8.74 6.11,-11.44 3.17,-2.71 7.13,-4.06 11.85,-4.06 3.25,0 6.25,0.69 8.99,2.1 2.75,1.39 4.85,3.29 6.29,5.69 1.46,2.42 2.18,4.97 2.18,7.68 0,2.57 -0.69,4.9 -2.07,7.01 -1.39,2.11 -3.44,3.8 -6.15,5.04 3.53,0.81 6.26,2.5 8.22,5.07 1.94,2.56 2.92,5.78 2.92,9.63 0,5.2 -1.9,9.64 -5.69,13.26 -3.81,3.62 -8.61,5.43 -14.42,5.43 -5.24,0 -9.58,-1.57 -13.04,-4.69 -3.47,-3.13 -5.44,-7.17 -5.93,-12.14z"/>
  <path id="_4_7" class="fil2" d="M1521.11 337.13l-7.33 0 0 -46.7c-1.76,1.7 -4.08,3.38 -6.94,5.06 -2.86,1.68 -5.44,2.94 -7.72,3.78l0 -7.08c4.1,-1.92 7.68,-4.25 10.75,-7 3.07,-2.74 5.25,-5.39 6.53,-7.97l4.72 0 0 59.92z"/>
  <path class="fil2" d="M1708.79 337.13l-7.33 0 0 -46.7c-1.76,1.7 -4.08,3.38 -6.94,5.06 -2.86,1.68 -5.44,2.94 -7.72,3.78l0 -7.08c4.1,-1.92 7.68,-4.25 10.75,-7 3.07,-2.74 5.25,-5.39 6.53,-7.97l4.72 0 0 59.92z"/>
  <path id="_1_8" class="fil2" d="M1748.96 337.13l-7.33 0 0 -46.7c-1.76,1.7 -4.08,3.38 -6.94,5.06 -2.86,1.68 -5.44,2.94 -7.72,3.78l0 -7.08c4.1,-1.92 7.68,-4.25 10.75,-7 3.07,-2.74 5.25,-5.39 6.53,-7.97l4.72 0 0 59.92z"/>
  <path id="_2_9" class="fil2" d="M1764.18 337.13l22.89 -59.67 8.68 0 24.29 59.67 -8.98 0 -6.91 -18.08 -25.12 0 -6.47 18.08 -8.38 0zm17.17 -24.5l20.33 0 -6.22 -16.54c-1.87,-5.03 -3.29,-9.18 -4.28,-12.46 -0.82,3.89 -1.91,7.71 -3.29,11.48l-6.54 17.52z"/>
  <path id="_3_10" class="fil2" d="M1823.39 321.3l7.33 -1c0.85,4.17 2.26,7.17 4.28,9 2.02,1.83 4.49,2.75 7.42,2.75 3.47,0 6.4,-1.2 8.76,-3.58 2.36,-2.39 3.54,-5.35 3.54,-8.88 0,-3.36 -1.1,-6.14 -3.31,-8.33 -2.19,-2.18 -4.98,-3.28 -8.39,-3.28 -1.39,0 -3.11,0.28 -5.18,0.82l0.82 -6.42c0.48,0.06 0.89,0.09 1.18,0.09 3.14,0 5.94,-0.82 8.46,-2.44 2.5,-1.63 3.75,-4.13 3.75,-7.5 0,-2.68 -0.91,-4.91 -2.74,-6.67 -1.82,-1.76 -4.17,-2.64 -7.04,-2.64 -2.86,0 -5.24,0.9 -7.14,2.71 -1.91,1.8 -3.13,4.51 -3.67,8.13l-7.33 -1.33c0.9,-4.92 2.93,-8.74 6.11,-11.44 3.17,-2.71 7.13,-4.06 11.85,-4.06 3.25,0 6.25,0.69 8.99,2.1 2.75,1.39 4.85,3.29 6.29,5.69 1.46,2.42 2.18,4.97 2.18,7.68 0,2.57 -0.69,4.9 -2.07,7.01 -1.39,2.11 -3.44,3.8 -6.15,5.04 3.53,0.81 6.26,2.5 8.22,5.07 1.94,2.56 2.92,5.78 2.92,9.63 0,5.2 -1.9,9.64 -5.69,13.26 -3.81,3.62 -8.61,5.43 -14.42,5.43 -5.24,0 -9.58,-1.57 -13.04,-4.69 -3.47,-3.13 -5.44,-7.17 -5.93,-12.14z"/>
  <path id="_4_11" class="fil2" d="M1869.73 321.3l7.33 -1c0.85,4.17 2.26,7.17 4.28,9 2.02,1.83 4.49,2.75 7.42,2.75 3.47,0 6.4,-1.2 8.76,-3.58 2.36,-2.39 3.54,-5.35 3.54,-8.88 0,-3.36 -1.1,-6.14 -3.31,-8.33 -2.19,-2.18 -4.98,-3.28 -8.39,-3.28 -1.39,0 -3.11,0.28 -5.18,0.82l0.82 -6.42c0.48,0.06 0.89,0.09 1.18,0.09 3.14,0 5.94,-0.82 8.46,-2.44 2.5,-1.63 3.75,-4.13 3.75,-7.5 0,-2.68 -0.91,-4.91 -2.74,-6.67 -1.82,-1.76 -4.17,-2.64 -7.04,-2.64 -2.86,0 -5.24,0.9 -7.14,2.71 -1.91,1.8 -3.13,4.51 -3.67,8.13l-7.33 -1.33c0.9,-4.92 2.93,-8.74 6.11,-11.44 3.17,-2.71 7.13,-4.06 11.85,-4.06 3.25,0 6.25,0.69 8.99,2.1 2.75,1.39 4.85,3.29 6.29,5.69 1.46,2.42 2.18,4.97 2.18,7.68 0,2.57 -0.69,4.9 -2.07,7.01 -1.39,2.11 -3.44,3.8 -6.15,5.04 3.53,0.81 6.26,2.5 8.22,5.07 1.94,2.56 2.92,5.78 2.92,9.63 0,5.2 -1.9,9.64 -5.69,13.26 -3.81,3.62 -8.61,5.43 -14.42,5.43 -5.24,0 -9.58,-1.57 -13.04,-4.69 -3.47,-3.13 -5.44,-7.17 -5.93,-12.14z"/>
  <path class="fil2" d="M2368.79 337.13l-7.33 0 0 -46.7c-1.76,1.7 -4.08,3.38 -6.94,5.06 -2.86,1.68 -5.44,2.94 -7.72,3.78l0 -7.08c4.1,-1.92 7.68,-4.25 10.75,-7 3.07,-2.74 5.25,-5.39 6.53,-7.97l4.72 0 0 59.92z"/>
  <path id="_1_12" class="fil2" d="M2408.96 337.13l-7.33 0 0 -46.7c-1.76,1.7 -4.08,3.38 -6.94,5.06 -2.86,1.68 -5.44,2.94 -7.72,3.78l0 -7.08c4.1,-1.92 7.68,-4.25 10.75,-7 3.07,-2.74 5.25,-5.39 6.53,-7.97l4.72 0 0 59.92z"/>
  <path id="_2_13" class="fil2" d="M2424.18 337.13l22.89 -59.67 8.68 0 24.29 59.67 -8.98 0 -6.91 -18.08 -25.12 0 -6.47 18.08 -8.38 0zm17.17 -24.5l20.33 0 -6.22 -16.54c-1.87,-5.03 -3.29,-9.18 -4.28,-12.46 -0.82,3.89 -1.91,7.71 -3.29,11.48l-6.54 17.52z"/>
  <path id="_3_14" class="fil2" d="M2483.39 321.3l7.33 -1c0.85,4.17 2.26,7.17 4.28,9 2.02,1.83 4.49,2.75 7.42,2.75 3.47,0 6.4,-1.2 8.76,-3.58 2.36,-2.39 3.54,-5.35 3.54,-8.88 0,-3.36 -1.1,-6.14 -3.31,-8.33 -2.19,-2.18 -4.98,-3.28 -8.39,-3.28 -1.39,0 -3.11,0.28 -5.18,0.82l0.82 -6.42c0.48,0.06 0.89,0.09 1.18,0.09 3.14,0 5.94,-0.82 8.46,-2.44 2.5,-1.63 3.75,-4.13 3.75,-7.5 0,-2.68 -0.91,-4.91 -2.74,-6.67 -1.82,-1.76 -4.17,-2.64 -7.04,-2.64 -2.86,0 -5.24,0.9 -7.14,2.71 -1.91,1.8 -3.13,4.51 -3.67,8.13l-7.33 -1.33c0.9,-4.92 2.93,-8.74 6.11,-11.44 3.17,-2.71 7.13,-4.06 11.85,-4.06 3.25,0 6.25,0.69 8.99,2.1 2.75,1.39 4.85,3.29 6.29,5.69 1.46,2.42 2.18,4.97 2.18,7.68 0,2.57 -0.69,4.9 -2.07,7.01 -1.39,2.11 -3.44,3.8 -6.15,5.04 3.53,0.81 6.26,2.5 8.22,5.07 1.94,2.56 2.92,5.78 2.92,9.63 0,5.2 -1.9,9.64 -5.69,13.26 -3.81,3.62 -8.61,5.43 -14.42,5.43 -5.24,0 -9.58,-1.57 -13.04,-4.69 -3.47,-3.13 -5.44,-7.17 -5.93,-12.14z"/>
  <path id="_4_15" class="fil2" d="M2530.15 285.21l0 -7 38.58 0 0 5.67c-3.79,4.04 -7.57,9.42 -11.29,16.13 -3.74,6.71 -6.61,13.61 -8.65,20.71 -1.46,4.99 -2.4,10.47 -2.8,16.42l-7.5 0c0.08,-4.69 1,-10.37 2.76,-17.03 1.76,-6.67 4.28,-13.08 7.57,-19.26 3.29,-6.18 6.79,-11.39 10.5,-15.63l-29.17 0z"/>
  <path class="fil2" d="M2998.79 337.13l-7.33 0 0 -46.7c-1.76,1.7 -4.08,3.38 -6.94,5.06 -2.86,1.68 -5.44,2.94 -7.72,3.78l0 -7.08c4.1,-1.92 7.68,-4.25 10.75,-7 3.07,-2.74 5.25,-5.39 6.53,-7.97l4.72 0 0 59.92z"/>
  <path id="_1_16" class="fil2" d="M3038.96 337.13l-7.33 0 0 -46.7c-1.76,1.7 -4.08,3.38 -6.94,5.06 -2.86,1.68 -5.44,2.94 -7.72,3.78l0 -7.08c4.1,-1.92 7.68,-4.25 10.75,-7 3.07,-2.74 5.25,-5.39 6.53,-7.97l4.72 0 0 59.92z"/>
  <path id="_2_17" class="fil2" d="M3054.18 337.13l22.89 -59.67 8.68 0 24.29 59.67 -8.98 0 -6.91 -18.08 -25.12 0 -6.47 18.08 -8.38 0zm17.17 -24.5l20.33 0 -6.22 -16.54c-1.87,-5.03 -3.29,-9.18 -4.28,-12.46 -0.82,3.89 -1.91,7.71 -3.29,11.48l-6.54 17.52z"/>
  <path id="_3_18" class="fil2" d="M3136.8 337.13l0 -14.25 -25.92 0 0 -6.75 27.25 -38.67 6 0 0 38.67 8.08 0 0 6.75 -8.08 0 0 14.25 -7.33 0zm0 -21l0 -26.85 -18.71 26.85 18.71 0z"/>
  <path id="_4_19" class="fil2" d="M3159.73 321.3l7.33 -1c0.85,4.17 2.26,7.17 4.28,9 2.02,1.83 4.49,2.75 7.42,2.75 3.47,0 6.4,-1.2 8.76,-3.58 2.36,-2.39 3.54,-5.35 3.54,-8.88 0,-3.36 -1.1,-6.14 -3.31,-8.33 -2.19,-2.18 -4.98,-3.28 -8.39,-3.28 -1.39,0 -3.11,0.28 -5.18,0.82l0.82 -6.42c0.48,0.06 0.89,0.09 1.18,0.09 3.14,0 5.94,-0.82 8.46,-2.44 2.5,-1.63 3.75,-4.13 3.75,-7.5 0,-2.68 -0.91,-4.91 -2.74,-6.67 -1.82,-1.76 -4.17,-2.64 -7.04,-2.64 -2.86,0 -5.24,0.9 -7.14,2.71 -1.91,1.8 -3.13,4.51 -3.67,8.13l-7.33 -1.33c0.9,-4.92 2.93,-8.74 6.11,-11.44 3.17,-2.71 7.13,-4.06 11.85,-4.06 3.25,0 6.25,0.69 8.99,2.1 2.75,1.39 4.85,3.29 6.29,5.69 1.46,2.42 2.18,4.97 2.18,7.68 0,2.57 -0.69,4.9 -2.07,7.01 -1.39,2.11 -3.44,3.8 -6.15,5.04 3.53,0.81 6.26,2.5 8.22,5.07 1.94,2.56 2.92,5.78 2.92,9.63 0,5.2 -1.9,9.64 -5.69,13.26 -3.81,3.62 -8.61,5.43 -14.42,5.43 -5.24,0 -9.58,-1.57 -13.04,-4.69 -3.47,-3.13 -5.44,-7.17 -5.93,-12.14z"/>
  <path class="fil2" d="M3378.79 337.13l-7.33 0 0 -46.7c-1.76,1.7 -4.08,3.38 -6.94,5.06 -2.86,1.68 -5.44,2.94 -7.72,3.78l0 -7.08c4.1,-1.92 7.68,-4.25 10.75,-7 3.07,-2.74 5.25,-5.39 6.53,-7.97l4.72 0 0 59.92z"/>
  <path id="_1_20" class="fil2" d="M3418.96 337.13l-7.33 0 0 -46.7c-1.76,1.7 -4.08,3.38 -6.94,5.06 -2.86,1.68 -5.44,2.94 -7.72,3.78l0 -7.08c4.1,-1.92 7.68,-4.25 10.75,-7 3.07,-2.74 5.25,-5.39 6.53,-7.97l4.72 0 0 59.92z"/>
  <path id="_2_21" class="fil2" d="M3434.18 337.13l22.89 -59.67 8.68 0 24.29 59.67 -8.98 0 -6.91 -18.08 -25.12 0 -6.47 18.08 -8.38 0zm17.17 -24.5l20.33 0 -6.22 -16.54c-1.87,-5.03 -3.29,-9.18 -4.28,-12.46 -0.82,3.89 -1.91,7.71 -3.29,11.48l-6.54 17.52z"/>
  <path id="_3_22" class="fil2" d="M3516.8 337.13l0 -14.25 -25.92 0 0 -6.75 27.25 -38.67 6 0 0 38.67 8.08 0 0 6.75 -8.08 0 0 14.25 -7.33 0zm0 -21l0 -26.85 -18.71 26.85 18.71 0z"/>
  <path id="_4_23" class="fil2" d="M3540.15 285.21l0 -7 38.58 0 0 5.67c-3.79,4.04 -7.57,9.42 -11.29,16.13 -3.74,6.71 -6.61,13.61 -8.65,20.71 -1.46,4.99 -2.4,10.47 -2.8,16.42l-7.5 0c0.08,-4.69 1,-10.37 2.76,-17.03 1.76,-6.67 4.28,-13.08 7.57,-19.26 3.29,-6.18 6.79,-11.39 10.5,-15.63l-29.17 0z"/>
  <path class="fil2" d="M3632.33 337.13l-7.33 0 0 -46.7c-1.76,1.7 -4.08,3.38 -6.94,5.06 -2.86,1.68 -5.44,2.94 -7.72,3.78l0 -7.08c4.1,-1.92 7.68,-4.25 10.75,-7 3.07,-2.74 5.25,-5.39 6.53,-7.97l4.72 0 0 59.92z"/>
  <path id="_1_24" class="fil2" d="M3672.49 337.13l-7.33 0 0 -46.7c-1.76,1.7 -4.08,3.38 -6.94,5.06 -2.86,1.68 -5.44,2.94 -7.72,3.78l0 -7.08c4.1,-1.92 7.68,-4.25 10.75,-7 3.07,-2.74 5.25,-5.39 6.53,-7.97l4.72 0 0 59.92z"/>
  <path id="_2_25" class="fil2" d="M3687.71 337.13l22.89 -59.67 8.68 0 24.29 59.67 -8.98 0 -6.91 -18.08 -25.12 0 -6.47 18.08 -8.38 0zm17.17 -24.5l20.33 0 -6.22 -16.54c-1.87,-5.03 -3.29,-9.18 -4.28,-12.46 -0.82,3.89 -1.91,7.71 -3.29,11.48l-6.54 17.52z"/>
  <path id="_3_26" class="fil2" d="M3770.34 337.13l0 -14.25 -25.92 0 0 -6.75 27.25 -38.67 6 0 0 38.67 8.08 0 0 6.75 -8.08 0 0 14.25 -7.33 0zm0 -21l0 -26.85 -18.71 26.85 18.71 0z"/>
  <path id="_4_27" class="fil2" d="M3794.35 323.3l7 -0.58c0.6,3.31 1.74,5.7 3.42,7.18 1.68,1.48 3.83,2.24 6.47,2.24 2.25,0 4.22,-0.52 5.93,-1.56 1.71,-1.03 3.1,-2.4 4.17,-4.14 1.07,-1.72 1.97,-4.06 2.71,-6.99 0.74,-2.93 1.09,-5.92 1.09,-8.96 0,-0.32 -0.01,-0.82 -0.04,-1.47 -1.46,2.33 -3.46,4.24 -5.99,5.68 -2.53,1.46 -5.28,2.18 -8.22,2.18 -4.93,0 -9.1,-1.79 -12.52,-5.37 -3.4,-3.57 -5.11,-8.29 -5.11,-14.15 0,-6.06 1.78,-10.92 5.35,-14.61 3.56,-3.68 8.02,-5.53 13.39,-5.53 3.86,0 7.4,1.04 10.63,3.14 3.21,2.08 5.64,5.06 7.3,8.93 1.67,3.86 2.5,9.46 2.5,16.78 0,7.63 -0.82,13.7 -2.47,18.21 -1.65,4.53 -4.13,7.96 -7.39,10.32 -3.26,2.36 -7.08,3.54 -11.47,3.54 -4.67,0 -8.47,-1.29 -11.43,-3.89 -2.94,-2.59 -4.72,-6.25 -5.32,-10.94zm29.92 -26.32c0,-4.19 -1.11,-7.53 -3.33,-9.98 -2.2,-2.46 -4.9,-3.7 -8.07,-3.7 -3.28,0 -6.11,1.32 -8.5,3.97 -2.41,2.65 -3.6,6.1 -3.6,10.32 0,3.79 1.14,6.88 3.4,9.24 2.28,2.38 5.11,3.56 8.49,3.56 3.39,0 6.17,-1.18 8.35,-3.56 2.18,-2.36 3.26,-5.65 3.26,-9.85z"/>
  <path class="fil2" d="M4018.79 337.13l-7.33 0 0 -46.7c-1.76,1.7 -4.08,3.38 -6.94,5.06 -2.86,1.68 -5.44,2.94 -7.72,3.78l0 -7.08c4.1,-1.92 7.68,-4.25 10.75,-7 3.07,-2.74 5.25,-5.39 6.53,-7.97l4.72 0 0 59.92z"/>
  <path id="_1_28" class="fil2" d="M4058.96 337.13l-7.33 0 0 -46.7c-1.76,1.7 -4.08,3.38 -6.94,5.06 -2.86,1.68 -5.44,2.94 -7.72,3.78l0 -7.08c4.1,-1.92 7.68,-4.25 10.75,-7 3.07,-2.74 5.25,-5.39 6.53,-7.97l4.72 0 0 59.92z"/>
  <path id="_2_29" class="fil2" d="M4074.18 337.13l22.89 -59.67 8.68 0 24.29 59.67 -8.98 0 -6.91 -18.08 -25.12 0 -6.47 18.08 -8.38 0zm17.17 -24.5l20.33 0 -6.22 -16.54c-1.87,-5.03 -3.29,-9.18 -4.28,-12.46 -0.82,3.89 -1.91,7.71 -3.29,11.48l-6.54 17.52z"/>
  <path id="_3_30" class="fil2" d="M4133.39 321.46l7.67 -0.59c0.57,3.74 1.89,6.54 3.94,8.43 2.06,1.87 4.57,2.82 7.53,2.82 3.57,0 6.56,-1.33 8.99,-3.99 2.42,-2.67 3.63,-6.19 3.63,-10.58 0,-4.18 -1.15,-7.47 -3.47,-9.89 -2.32,-2.41 -5.39,-3.62 -9.21,-3.62 -2.38,0 -4.5,0.54 -6.39,1.62 -1.87,1.09 -3.35,2.49 -4.43,4.21l-6.92 -1 5.75 -30.67 29.58 0 0 7 -23.74 0 -3.18 16.1c3.57,-2.52 7.32,-3.76 11.24,-3.76 5.19,0 9.58,1.8 13.15,5.42 3.57,3.61 5.36,8.25 5.36,13.91 0,5.41 -1.57,10.07 -4.71,14 -3.82,4.83 -9.04,7.25 -15.65,7.25 -5.41,0 -9.83,-1.53 -13.26,-4.57 -3.43,-3.04 -5.39,-7.07 -5.87,-12.09z"/>
  <path id="_4_31" class="fil2" d="M4207.23 337.13l-7.33 0 0 -46.7c-1.76,1.7 -4.08,3.38 -6.94,5.06 -2.86,1.68 -5.44,2.94 -7.72,3.78l0 -7.08c4.1,-1.92 7.68,-4.25 10.75,-7 3.07,-2.74 5.25,-5.39 6.53,-7.97l4.72 0 0 59.92z"/>
  <path class="fil2" d="M4398.79 337.13l-7.33 0 0 -46.7c-1.76,1.7 -4.08,3.38 -6.94,5.06 -2.86,1.68 -5.44,2.94 -7.72,3.78l0 -7.08c4.1,-1.92 7.68,-4.25 10.75,-7 3.07,-2.74 5.25,-5.39 6.53,-7.97l4.72 0 0 59.92z"/>
  <path id="_1_32" class="fil2" d="M4438.96 337.13l-7.33 0 0 -46.7c-1.76,1.7 -4.08,3.38 -6.94,5.06 -2.86,1.68 -5.44,2.94 -7.72,3.78l0 -7.08c4.1,-1.92 7.68,-4.25 10.75,-7 3.07,-2.74 5.25,-5.39 6.53,-7.97l4.72 0 0 59.92z"/>
  <path id="_2_33" class="fil2" d="M4454.18 337.13l22.89 -59.67 8.68 0 24.29 59.67 -8.98 0 -6.91 -18.08 -25.12 0 -6.47 18.08 -8.38 0zm17.17 -24.5l20.33 0 -6.22 -16.54c-1.87,-5.03 -3.29,-9.18 -4.28,-12.46 -0.82,3.89 -1.91,7.71 -3.29,11.48l-6.54 17.52z"/>
  <path id="_3_34" class="fil2" d="M4513.39 321.46l7.67 -0.59c0.57,3.74 1.89,6.54 3.94,8.43 2.06,1.87 4.57,2.82 7.53,2.82 3.57,0 6.56,-1.33 8.99,-3.99 2.42,-2.67 3.63,-6.19 3.63,-10.58 0,-4.18 -1.15,-7.47 -3.47,-9.89 -2.32,-2.41 -5.39,-3.62 -9.21,-3.62 -2.38,0 -4.5,0.54 -6.39,1.62 -1.87,1.09 -3.35,2.49 -4.43,4.21l-6.92 -1 5.75 -30.67 29.58 0 0 7 -23.74 0 -3.18 16.1c3.57,-2.52 7.32,-3.76 11.24,-3.76 5.19,0 9.58,1.8 13.15,5.42 3.57,3.61 5.36,8.25 5.36,13.91 0,5.41 -1.57,10.07 -4.71,14 -3.82,4.83 -9.04,7.25 -15.65,7.25 -5.41,0 -9.83,-1.53 -13.26,-4.57 -3.43,-3.04 -5.39,-7.07 -5.87,-12.09z"/>
  <path id="_4_35" class="fil2" d="M4559.73 321.46l7.67 -0.59c0.57,3.74 1.89,6.54 3.94,8.43 2.06,1.87 4.57,2.82 7.53,2.82 3.57,0 6.56,-1.33 8.99,-3.99 2.42,-2.67 3.63,-6.19 3.63,-10.58 0,-4.18 -1.15,-7.47 -3.47,-9.89 -2.32,-2.41 -5.39,-3.62 -9.21,-3.62 -2.38,0 -4.5,0.54 -6.39,1.62 -1.87,1.09 -3.35,2.49 -4.43,4.21l-6.92 -1 5.75 -30.67 29.58 0 0 7 -23.74 0 -3.18 16.1c3.57,-2.52 7.32,-3.76 11.24,-3.76 5.19,0 9.58,1.8 13.15,5.42 3.57,3.61 5.36,8.25 5.36,13.91 0,5.41 -1.57,10.07 -4.71,14 -3.82,4.83 -9.04,7.25 -15.65,7.25 -5.41,0 -9.83,-1.53 -13.26,-4.57 -3.43,-3.04 -5.39,-7.07 -5.87,-12.09z"/>
  <path class="fil2" d="M4788.79 337.13l-7.33 0 0 -46.7c-1.76,1.7 -4.08,3.38 -6.94,5.06 -2.86,1.68 -5.44,2.94 -7.72,3.78l0 -7.08c4.1,-1.92 7.68,-4.25 10.75,-7 3.07,-2.74 5.25,-5.39 6.53,-7.97l4.72 0 0 59.92z"/>
  <path id="_1_36" class="fil2" d="M4828.96 337.13l-7.33 0 0 -46.7c-1.76,1.7 -4.08,3.38 -6.94,5.06 -2.86,1.68 -5.44,2.94 -7.72,3.78l0 -7.08c4.1,-1.92 7.68,-4.25 10.75,-7 3.07,-2.74 5.25,-5.39 6.53,-7.97l4.72 0 0 59.92z"/>
  <path id="_2_37" class="fil2" d="M4844.18 337.13l22.89 -59.67 8.68 0 24.29 59.67 -8.98 0 -6.91 -18.08 -25.12 0 -6.47 18.08 -8.38 0zm17.17 -24.5l20.33 0 -6.22 -16.54c-1.87,-5.03 -3.29,-9.18 -4.28,-12.46 -0.82,3.89 -1.91,7.71 -3.29,11.48l-6.54 17.52z"/>
  <path id="_3_38" class="fil2" d="M4903.39 321.46l7.67 -0.59c0.57,3.74 1.89,6.54 3.94,8.43 2.06,1.87 4.57,2.82 7.53,2.82 3.57,0 6.56,-1.33 8.99,-3.99 2.42,-2.67 3.63,-6.19 3.63,-10.58 0,-4.18 -1.15,-7.47 -3.47,-9.89 -2.32,-2.41 -5.39,-3.62 -9.21,-3.62 -2.38,0 -4.5,0.54 -6.39,1.62 -1.87,1.09 -3.35,2.49 -4.43,4.21l-6.92 -1 5.75 -30.67 29.58 0 0 7 -23.74 0 -3.18 16.1c3.57,-2.52 7.32,-3.76 11.24,-3.76 5.19,0 9.58,1.8 13.15,5.42 3.57,3.61 5.36,8.25 5.36,13.91 0,5.41 -1.57,10.07 -4.71,14 -3.82,4.83 -9.04,7.25 -15.65,7.25 -5.41,0 -9.83,-1.53 -13.26,-4.57 -3.43,-3.04 -5.39,-7.07 -5.87,-12.09z"/>
  <path id="_4_39" class="fil2" d="M4950.15 285.21l0 -7 38.58 0 0 5.67c-3.79,4.04 -7.57,9.42 -11.29,16.13 -3.74,6.71 -6.61,13.61 -8.65,20.71 -1.46,4.99 -2.4,10.47 -2.8,16.42l-7.5 0c0.08,-4.69 1,-10.37 2.76,-17.03 1.76,-6.67 4.28,-13.08 7.57,-19.26 3.29,-6.18 6.79,-11.39 10.5,-15.63l-29.17 0z"/>
  <path class="fil2" d="M5308.79 337.13l-7.33 0 0 -46.7c-1.76,1.7 -4.08,3.38 -6.94,5.06 -2.86,1.68 -5.44,2.94 -7.72,3.78l0 -7.08c4.1,-1.92 7.68,-4.25 10.75,-7 3.07,-2.74 5.25,-5.39 6.53,-7.97l4.72 0 0 59.92z"/>
  <path id="_1_40" class="fil2" d="M5348.96 337.13l-7.33 0 0 -46.7c-1.76,1.7 -4.08,3.38 -6.94,5.06 -2.86,1.68 -5.44,2.94 -7.72,3.78l0 -7.08c4.1,-1.92 7.68,-4.25 10.75,-7 3.07,-2.74 5.25,-5.39 6.53,-7.97l4.72 0 0 59.92z"/>
  <path id="_2_41" class="fil2" d="M5364.18 337.13l22.89 -59.67 8.68 0 24.29 59.67 -8.98 0 -6.91 -18.08 -25.12 0 -6.47 18.08 -8.38 0zm17.17 -24.5l20.33 0 -6.22 -16.54c-1.87,-5.03 -3.29,-9.18 -4.28,-12.46 -0.82,3.89 -1.91,7.71 -3.29,11.48l-6.54 17.52z"/>
  <path id="_3_42" class="fil2" d="M5461.47 292.05l-7.25 0.58c-0.65,-2.87 -1.58,-4.97 -2.79,-6.28 -1.99,-2.09 -4.44,-3.14 -7.36,-3.14 -2.35,0 -4.43,0.65 -6.22,1.96 -2.3,1.68 -4.11,4.13 -5.46,7.35 -1.33,3.24 -2.03,7.83 -2.08,13.79 1.76,-2.68 3.93,-4.68 6.48,-5.97 2.56,-1.31 5.22,-1.96 8.03,-1.96 4.89,0 9.06,1.81 12.5,5.41 3.43,3.59 5.15,8.24 5.15,13.94 0,3.75 -0.8,7.22 -2.42,10.44 -1.62,3.22 -3.83,5.68 -6.67,7.39 -2.82,1.71 -6.03,2.57 -9.61,2.57 -6.1,0 -11.08,-2.25 -14.94,-6.74 -3.85,-4.48 -5.78,-11.89 -5.78,-22.19 0,-11.53 2.14,-19.92 6.41,-25.15 3.72,-4.56 8.74,-6.83 15.06,-6.83 4.69,0 8.56,1.32 11.56,3.94 3,2.63 4.81,6.25 5.4,10.89zm-30 25.75c0,2.53 0.54,4.94 1.61,7.25 1.07,2.3 2.57,4.06 4.47,5.26 1.92,1.21 3.94,1.82 6.1,1.82 3.13,0 5.79,-1.25 8,-3.75 2.21,-2.5 3.32,-5.89 3.32,-10.18 0,-4.13 -1.09,-7.38 -3.28,-9.75 -2.18,-2.37 -4.96,-3.57 -8.33,-3.57 -3.31,0 -6.13,1.2 -8.43,3.57 -2.31,2.37 -3.46,5.49 -3.46,9.35z"/>
  <path id="_4_43" class="fil2" d="M5497.23 337.13l-7.33 0 0 -46.7c-1.76,1.7 -4.08,3.38 -6.94,5.06 -2.86,1.68 -5.44,2.94 -7.72,3.78l0 -7.08c4.1,-1.92 7.68,-4.25 10.75,-7 3.07,-2.74 5.25,-5.39 6.53,-7.97l4.72 0 0 59.92z"/>
  <path class="fil2" d="M5818.79 337.13l-7.33 0 0 -46.7c-1.76,1.7 -4.08,3.38 -6.94,5.06 -2.86,1.68 -5.44,2.94 -7.72,3.78l0 -7.08c4.1,-1.92 7.68,-4.25 10.75,-7 3.07,-2.74 5.25,-5.39 6.53,-7.97l4.72 0 0 59.92z"/>
  <path id="_1_44" class="fil2" d="M5858.96 337.13l-7.33 0 0 -46.7c-1.76,1.7 -4.08,3.38 -6.94,5.06 -2.86,1.68 -5.44,2.94 -7.72,3.78l0 -7.08c4.1,-1.92 7.68,-4.25 10.75,-7 3.07,-2.74 5.25,-5.39 6.53,-7.97l4.72 0 0 59.92z"/>
  <path id="_2_45" class="fil2" d="M5874.18 337.13l22.89 -59.67 8.68 0 24.29 59.67 -8.98 0 -6.91 -18.08 -25.12 0 -6.47 18.08 -8.38 0zm17.17 -24.5l20.33 0 -6.22 -16.54c-1.87,-5.03 -3.29,-9.18 -4.28,-12.46 -0.82,3.89 -1.91,7.71 -3.29,11.48l-6.54 17.52z"/>
  <path id="_3_46" class="fil2" d="M5971.47 292.05l-7.25 0.58c-0.65,-2.87 -1.58,-4.97 -2.79,-6.28 -1.99,-2.09 -4.44,-3.14 -7.36,-3.14 -2.35,0 -4.43,0.65 -6.22,1.96 -2.3,1.68 -4.11,4.13 -5.46,7.35 -1.33,3.24 -2.03,7.83 -2.08,13.79 1.76,-2.68 3.93,-4.68 6.48,-5.97 2.56,-1.31 5.22,-1.96 8.03,-1.96 4.89,0 9.06,1.81 12.5,5.41 3.43,3.59 5.15,8.24 5.15,13.94 0,3.75 -0.8,7.22 -2.42,10.44 -1.62,3.22 -3.83,5.68 -6.67,7.39 -2.82,1.71 -6.03,2.57 -9.61,2.57 -6.1,0 -11.08,-2.25 -14.94,-6.74 -3.85,-4.48 -5.78,-11.89 -5.78,-22.19 0,-11.53 2.14,-19.92 6.41,-25.15 3.72,-4.56 8.74,-6.83 15.06,-6.83 4.69,0 8.56,1.32 11.56,3.94 3,2.63 4.81,6.25 5.4,10.89zm-30 25.75c0,2.53 0.54,4.94 1.61,7.25 1.07,2.3 2.57,4.06 4.47,5.26 1.92,1.21 3.94,1.82 6.1,1.82 3.13,0 5.79,-1.25 8,-3.75 2.21,-2.5 3.32,-5.89 3.32,-10.18 0,-4.13 -1.09,-7.38 -3.28,-9.75 -2.18,-2.37 -4.96,-3.57 -8.33,-3.57 -3.31,0 -6.13,1.2 -8.43,3.57 -2.31,2.37 -3.46,5.49 -3.46,9.35z"/>
  <path id="_4_47" class="fil2" d="M5979.73 321.46l7.67 -0.59c0.57,3.74 1.89,6.54 3.94,8.43 2.06,1.87 4.57,2.82 7.53,2.82 3.57,0 6.56,-1.33 8.99,-3.99 2.42,-2.67 3.63,-6.19 3.63,-10.58 0,-4.18 -1.15,-7.47 -3.47,-9.89 -2.32,-2.41 -5.39,-3.62 -9.21,-3.62 -2.38,0 -4.5,0.54 -6.39,1.62 -1.87,1.09 -3.35,2.49 -4.43,4.21l-6.92 -1 5.75 -30.67 29.58 0 0 7 -23.74 0 -3.18 16.1c3.57,-2.52 7.32,-3.76 11.24,-3.76 5.19,0 9.58,1.8 13.15,5.42 3.57,3.61 5.36,8.25 5.36,13.91 0,5.41 -1.57,10.07 -4.71,14 -3.82,4.83 -9.04,7.25 -15.65,7.25 -5.41,0 -9.83,-1.53 -13.26,-4.57 -3.43,-3.04 -5.39,-7.07 -5.87,-12.09z"/>
  <path class="fil2" d="M6191.18 337.13l-7.33 0 0 -46.7c-1.76,1.7 -4.08,3.38 -6.94,5.06 -2.86,1.68 -5.44,2.94 -7.72,3.78l0 -7.08c4.1,-1.92 7.68,-4.25 10.75,-7 3.07,-2.74 5.25,-5.39 6.53,-7.97l4.72 0 0 59.92z"/>
  <path id="_1_48" class="fil2" d="M6231.34 337.13l-7.33 0 0 -46.7c-1.76,1.7 -4.08,3.38 -6.94,5.06 -2.86,1.68 -5.44,2.94 -7.72,3.78l0 -7.08c4.1,-1.92 7.68,-4.25 10.75,-7 3.07,-2.74 5.25,-5.39 6.53,-7.97l4.72 0 0 59.92z"/>
  <path id="_2_49" class="fil2" d="M6246.56 337.13l22.89 -59.67 8.68 0 24.29 59.67 -8.98 0 -6.91 -18.08 -25.12 0 -6.47 18.08 -8.38 0zm17.17 -24.5l20.33 0 -6.22 -16.54c-1.87,-5.03 -3.29,-9.18 -4.28,-12.46 -0.82,3.89 -1.91,7.71 -3.29,11.48l-6.54 17.52z"/>
  <path id="_3_50" class="fil2" d="M6343.85 292.05l-7.25 0.58c-0.65,-2.87 -1.58,-4.97 -2.79,-6.28 -1.99,-2.09 -4.44,-3.14 -7.36,-3.14 -2.35,0 -4.43,0.65 -6.22,1.96 -2.3,1.68 -4.11,4.13 -5.46,7.35 -1.33,3.24 -2.03,7.83 -2.08,13.79 1.76,-2.68 3.93,-4.68 6.48,-5.97 2.56,-1.31 5.22,-1.96 8.03,-1.96 4.89,0 9.06,1.81 12.5,5.41 3.43,3.59 5.15,8.24 5.15,13.94 0,3.75 -0.8,7.22 -2.42,10.44 -1.62,3.22 -3.83,5.68 -6.67,7.39 -2.82,1.71 -6.03,2.57 -9.61,2.57 -6.1,0 -11.08,-2.25 -14.94,-6.74 -3.85,-4.48 -5.78,-11.89 -5.78,-22.19 0,-11.53 2.14,-19.92 6.41,-25.15 3.72,-4.56 8.74,-6.83 15.06,-6.83 4.69,0 8.56,1.32 11.56,3.94 3,2.63 4.81,6.25 5.4,10.89zm-30 25.75c0,2.53 0.54,4.94 1.61,7.25 1.07,2.3 2.57,4.06 4.47,5.26 1.92,1.21 3.94,1.82 6.1,1.82 3.13,0 5.79,-1.25 8,-3.75 2.21,-2.5 3.32,-5.89 3.32,-10.18 0,-4.13 -1.09,-7.38 -3.28,-9.75 -2.18,-2.37 -4.96,-3.57 -8.33,-3.57 -3.31,0 -6.13,1.2 -8.43,3.57 -2.31,2.37 -3.46,5.49 -3.46,9.35z"/>
  <path id="_4_51" class="fil2" d="M6353.2 323.3l7 -0.58c0.6,3.31 1.74,5.7 3.42,7.18 1.68,1.48 3.83,2.24 6.47,2.24 2.25,0 4.22,-0.52 5.93,-1.56 1.71,-1.03 3.1,-2.4 4.17,-4.14 1.07,-1.72 1.97,-4.06 2.71,-6.99 0.74,-2.93 1.09,-5.92 1.09,-8.96 0,-0.32 -0.01,-0.82 -0.04,-1.47 -1.46,2.33 -3.46,4.24 -5.99,5.68 -2.53,1.46 -5.28,2.18 -8.22,2.18 -4.93,0 -9.1,-1.79 -12.52,-5.37 -3.4,-3.57 -5.11,-8.29 -5.11,-14.15 0,-6.06 1.78,-10.92 5.35,-14.61 3.56,-3.68 8.02,-5.53 13.39,-5.53 3.86,0 7.4,1.04 10.63,3.14 3.21,2.08 5.64,5.06 7.3,8.93 1.67,3.86 2.5,9.46 2.5,16.78 0,7.63 -0.82,13.7 -2.47,18.21 -1.65,4.53 -4.13,7.96 -7.39,10.32 -3.26,2.36 -7.08,3.54 -11.47,3.54 -4.67,0 -8.47,-1.29 -11.43,-3.89 -2.94,-2.59 -4.72,-6.25 -5.32,-10.94zm29.92 -26.32c0,-4.19 -1.11,-7.53 -3.33,-9.98 -2.2,-2.46 -4.9,-3.7 -8.07,-3.7 -3.28,0 -6.11,1.32 -8.5,3.97 -2.41,2.65 -3.6,6.1 -3.6,10.32 0,3.79 1.14,6.88 3.4,9.24 2.28,2.38 5.11,3.56 8.49,3.56 3.39,0 6.17,-1.18 8.35,-3.56 2.18,-2.36 3.26,-5.65 3.26,-9.85z"/>
  <path class="fil2" d="M1066.02 917.22l-7.33 0 0 -46.7c-1.76,1.7 -4.08,3.38 -6.94,5.06 -2.86,1.68 -5.44,2.94 -7.72,3.78l0 -7.08c4.1,-1.92 7.68,-4.25 10.75,-7 3.07,-2.74 5.25,-5.39 6.53,-7.97l4.72 0 0 59.92z"/>
  <path id="_1_52" class="fil2" d="M1106.19 917.22l-7.33 0 0 -46.7c-1.76,1.7 -4.08,3.38 -6.94,5.06 -2.86,1.68 -5.44,2.94 -7.72,3.78l0 -7.08c4.1,-1.92 7.68,-4.25 10.75,-7 3.07,-2.74 5.25,-5.39 6.53,-7.97l4.72 0 0 59.92z"/>
  <path id="_2_53" class="fil2" d="M1121.41 917.22l22.89 -59.67 8.68 0 24.29 59.67 -8.98 0 -6.91 -18.08 -25.12 0 -6.47 18.08 -8.38 0zm17.17 -24.5l20.33 0 -6.22 -16.54c-1.87,-5.03 -3.29,-9.18 -4.28,-12.46 -0.82,3.89 -1.91,7.71 -3.29,11.48l-6.54 17.52z"/>
  <path id="_3_54" class="fil2" d="M1180.61 901.38l7.33 -1c0.85,4.17 2.26,7.17 4.28,9 2.02,1.83 4.49,2.75 7.42,2.75 3.47,0 6.4,-1.2 8.76,-3.58 2.36,-2.39 3.54,-5.35 3.54,-8.88 0,-3.36 -1.1,-6.14 -3.31,-8.33 -2.19,-2.18 -4.98,-3.28 -8.39,-3.28 -1.39,0 -3.11,0.28 -5.18,0.82l0.82 -6.42c0.48,0.06 0.89,0.09 1.18,0.09 3.14,0 5.94,-0.82 8.46,-2.44 2.5,-1.63 3.75,-4.13 3.75,-7.5 0,-2.68 -0.91,-4.91 -2.74,-6.67 -1.82,-1.76 -4.17,-2.64 -7.04,-2.64 -2.86,0 -5.24,0.9 -7.14,2.71 -1.91,1.8 -3.13,4.51 -3.67,8.13l-7.33 -1.33c0.9,-4.92 2.93,-8.74 6.11,-11.44 3.17,-2.71 7.13,-4.06 11.85,-4.06 3.25,0 6.25,0.69 8.99,2.1 2.75,1.39 4.85,3.29 6.29,5.69 1.46,2.42 2.18,4.97 2.18,7.68 0,2.57 -0.69,4.9 -2.07,7.01 -1.39,2.11 -3.44,3.8 -6.15,5.04 3.53,0.81 6.26,2.5 8.22,5.07 1.94,2.56 2.92,5.78 2.92,9.63 0,5.2 -1.9,9.64 -5.69,13.26 -3.81,3.62 -8.61,5.43 -14.42,5.43 -5.24,0 -9.58,-1.57 -13.04,-4.69 -3.47,-3.13 -5.44,-7.17 -5.93,-12.14z"/>
  <path id="_4_55" class="fil2" d="M1226.96 887.77c0,-7.04 0.72,-12.74 2.17,-17.04 1.46,-4.32 3.61,-7.64 6.47,-9.96 2.85,-2.32 6.44,-3.47 10.78,-3.47 3.19,0 6,0.64 8.43,1.93 2.42,1.29 4.42,3.15 5.97,5.58 1.56,2.42 2.78,5.38 3.67,8.86 0.9,3.49 1.35,8.2 1.35,14.1 0,7 -0.72,12.67 -2.15,16.97 -1.43,4.32 -3.58,7.64 -6.44,9.97 -2.85,2.33 -6.46,3.5 -10.82,3.5 -5.74,0 -10.25,-2.04 -13.53,-6.14 -3.93,-5 -5.89,-13.1 -5.89,-24.31zm7.5 0.03c0,9.82 1.14,16.35 3.43,19.57 2.3,3.24 5.13,4.85 8.49,4.85 3.36,0 6.19,-1.63 8.48,-4.86 2.3,-3.25 3.43,-9.76 3.43,-19.56 0,-9.82 -1.14,-16.35 -3.43,-19.57 -2.28,-3.24 -5.14,-4.85 -8.57,-4.85 -3.36,0 -6.06,1.43 -8.07,4.28 -2.51,3.62 -3.76,10.35 -3.76,20.14z"/>
  <path class="fil2" d="M336.02 1307.22l-7.33 0 0 -46.7c-1.76,1.7 -4.08,3.38 -6.94,5.06 -2.86,1.68 -5.44,2.94 -7.72,3.78l0 -7.08c4.1,-1.92 7.68,-4.25 10.75,-7 3.07,-2.74 5.25,-5.39 6.53,-7.97l4.72 0 0 59.92z"/>
  <path id="_1_56" class="fil2" d="M376.19 1307.22l-7.33 0 0 -46.7c-1.76,1.7 -4.08,3.38 -6.94,5.06 -2.86,1.68 -5.44,2.94 -7.72,3.78l0 -7.08c4.1,-1.92 7.68,-4.25 10.75,-7 3.07,-2.74 5.25,-5.39 6.53,-7.97l4.72 0 0 59.92z"/>
  <path id="_2_57" class="fil2" d="M391.41 1307.22l22.89 -59.67 8.68 0 24.29 59.67 -8.98 0 -6.91 -18.08 -25.12 0 -6.47 18.08 -8.38 0zm17.17 -24.5l20.33 0 -6.22 -16.54c-1.87,-5.03 -3.29,-9.18 -4.28,-12.46 -0.82,3.89 -1.91,7.71 -3.29,11.48l-6.54 17.52z"/>
  <path id="_3_58" class="fil2" d="M489.03 1300.22l0 7 -39.5 0c-0.06,-1.76 0.24,-3.46 0.86,-5.1 1.01,-2.68 2.64,-5.33 4.87,-7.93 2.24,-2.6 5.43,-5.6 9.58,-9 6.46,-5.32 10.85,-9.53 13.14,-12.64 2.31,-3.11 3.46,-6.06 3.46,-8.83 0,-2.9 -1.04,-5.35 -3.13,-7.35 -2.08,-1.99 -4.81,-2.99 -8.15,-2.99 -3.54,0 -6.37,1.06 -8.5,3.17 -2.13,2.1 -3.19,5.02 -3.22,8.75l-7.5 -0.75c0.51,-5.61 2.46,-9.89 5.82,-12.83 3.37,-2.94 7.89,-4.42 13.57,-4.42 5.72,0 10.26,1.58 13.59,4.76 3.35,3.18 5.02,7.13 5.02,11.82 0,2.39 -0.49,4.74 -1.47,7.04 -0.97,2.32 -2.6,4.75 -4.86,7.3 -2.28,2.54 -6.04,6.06 -11.29,10.5 -4.4,3.7 -7.24,6.2 -8.48,7.52 -1.25,1.32 -2.28,2.64 -3.1,3.97l29.29 0z"/>
  <path id="_4_59" class="fil2" d="M498.04 1293.38l7 -0.58c0.6,3.31 1.74,5.7 3.42,7.18 1.68,1.48 3.83,2.24 6.47,2.24 2.25,0 4.22,-0.52 5.93,-1.56 1.71,-1.03 3.1,-2.4 4.17,-4.14 1.07,-1.72 1.97,-4.06 2.71,-6.99 0.74,-2.93 1.09,-5.92 1.09,-8.96 0,-0.32 -0.01,-0.82 -0.04,-1.47 -1.46,2.33 -3.46,4.24 -5.99,5.68 -2.53,1.46 -5.28,2.18 -8.22,2.18 -4.93,0 -9.1,-1.79 -12.52,-5.37 -3.4,-3.57 -5.11,-8.29 -5.11,-14.15 0,-6.06 1.78,-10.92 5.35,-14.61 3.56,-3.68 8.02,-5.53 13.39,-5.53 3.86,0 7.4,1.04 10.63,3.14 3.21,2.08 5.64,5.06 7.3,8.93 1.67,3.86 2.5,9.46 2.5,16.78 0,7.63 -0.82,13.7 -2.47,18.21 -1.65,4.53 -4.13,7.96 -7.39,10.32 -3.26,2.36 -7.08,3.54 -11.47,3.54 -4.67,0 -8.47,-1.29 -11.43,-3.89 -2.94,-2.59 -4.72,-6.25 -5.32,-10.94zm29.92 -26.32c0,-4.19 -1.11,-7.53 -3.33,-9.98 -2.2,-2.46 -4.9,-3.7 -8.07,-3.7 -3.28,0 -6.11,1.32 -8.5,3.97 -2.41,2.65 -3.6,6.1 -3.6,10.32 0,3.79 1.14,6.88 3.4,9.24 2.28,2.38 5.11,3.56 8.49,3.56 3.39,0 6.17,-1.18 8.35,-3.56 2.18,-2.36 3.26,-5.65 3.26,-9.85z"/>
  <path class="fil2" d="M336.02 2097.22l-7.33 0 0 -46.7c-1.76,1.7 -4.08,3.38 -6.94,5.06 -2.86,1.68 -5.44,2.94 -7.72,3.78l0 -7.08c4.1,-1.92 7.68,-4.25 10.75,-7 3.07,-2.74 5.25,-5.39 6.53,-7.97l4.72 0 0 59.92z"/>
  <path id="_1_60" class="fil2" d="M376.19 2097.22l-7.33 0 0 -46.7c-1.76,1.7 -4.08,3.38 -6.94,5.06 -2.86,1.68 -5.44,2.94 -7.72,3.78l0 -7.08c4.1,-1.92 7.68,-4.25 10.75,-7 3.07,-2.74 5.25,-5.39 6.53,-7.97l4.72 0 0 59.92z"/>
  <path id="_2_61" class="fil2" d="M391.41 2097.22l22.89 -59.67 8.68 0 24.29 59.67 -8.98 0 -6.91 -18.08 -25.12 0 -6.47 18.08 -8.38 0zm17.17 -24.5l20.33 0 -6.22 -16.54c-1.87,-5.03 -3.29,-9.18 -4.28,-12.46 -0.82,3.89 -1.91,7.71 -3.29,11.48l-6.54 17.52z"/>
  <path id="_3_62" class="fil2" d="M489.03 2090.22l0 7 -39.5 0c-0.06,-1.76 0.24,-3.46 0.86,-5.1 1.01,-2.68 2.64,-5.33 4.87,-7.93 2.24,-2.6 5.43,-5.6 9.58,-9 6.46,-5.32 10.85,-9.53 13.14,-12.64 2.31,-3.11 3.46,-6.06 3.46,-8.83 0,-2.9 -1.04,-5.35 -3.13,-7.35 -2.08,-1.99 -4.81,-2.99 -8.15,-2.99 -3.54,0 -6.37,1.06 -8.5,3.17 -2.13,2.1 -3.19,5.02 -3.22,8.75l-7.5 -0.75c0.51,-5.61 2.46,-9.89 5.82,-12.83 3.37,-2.94 7.89,-4.42 13.57,-4.42 5.72,0 10.26,1.58 13.59,4.76 3.35,3.18 5.02,7.13 5.02,11.82 0,2.39 -0.49,4.74 -1.47,7.04 -0.97,2.32 -2.6,4.75 -4.86,7.3 -2.28,2.54 -6.04,6.06 -11.29,10.5 -4.4,3.7 -7.24,6.2 -8.48,7.52 -1.25,1.32 -2.28,2.64 -3.1,3.97l29.29 0z"/>
  <path id="_4_63" class="fil2" d="M498.04 2083.38l7 -0.58c0.6,3.31 1.74,5.7 3.42,7.18 1.68,1.48 3.83,2.24 6.47,2.24 2.25,0 4.22,-0.52 5.93,-1.56 1.71,-1.03 3.1,-2.4 4.17,-4.14 1.07,-1.72 1.97,-4.06 2.71,-6.99 0.74,-2.93 1.09,-5.92 1.09,-8.96 0,-0.32 -0.01,-0.82 -0.04,-1.47 -1.46,2.33 -3.46,4.24 -5.99,5.68 -2.53,1.46 -5.28,2.18 -8.22,2.18 -4.93,0 -9.1,-1.79 -12.52,-5.37 -3.4,-3.57 -5.11,-8.29 -5.11,-14.15 0,-6.06 1.78,-10.92 5.35,-14.61 3.56,-3.68 8.02,-5.53 13.39,-5.53 3.86,0 7.4,1.04 10.63,3.14 3.21,2.08 5.64,5.06 7.3,8.93 1.67,3.86 2.5,9.46 2.5,16.78 0,7.63 -0.82,13.7 -2.47,18.21 -1.65,4.53 -4.13,7.96 -7.39,10.32 -3.26,2.36 -7.08,3.54 -11.47,3.54 -4.67,0 -8.47,-1.29 -11.43,-3.89 -2.94,-2.59 -4.72,-6.25 -5.32,-10.94zm29.92 -26.32c0,-4.19 -1.11,-7.53 -3.33,-9.98 -2.2,-2.46 -4.9,-3.7 -8.07,-3.7 -3.28,0 -6.11,1.32 -8.5,3.97 -2.41,2.65 -3.6,6.1 -3.6,10.32 0,3.79 1.14,6.88 3.4,9.24 2.28,2.38 5.11,3.56 8.49,3.56 3.39,0 6.17,-1.18 8.35,-3.56 2.18,-2.36 3.26,-5.65 3.26,-9.85z"/>
  <path class="fil2" d="M496.02 2947.22l-7.33 0 0 -46.7c-1.76,1.7 -4.08,3.38 -6.94,5.06 -2.86,1.68 -5.44,2.94 -7.72,3.78l0 -7.08c4.1,-1.92 7.68,-4.25 10.75,-7 3.07,-2.74 5.25,-5.39 6.53,-7.97l4.72 0 0 59.92z"/>
  <path id="_1_64" class="fil2" d="M536.19 2947.22l-7.33 0 0 -46.7c-1.76,1.7 -4.08,3.38 -6.94,5.06 -2.86,1.68 -5.44,2.94 -7.72,3.78l0 -7.08c4.1,-1.92 7.68,-4.25 10.75,-7 3.07,-2.74 5.25,-5.39 6.53,-7.97l4.72 0 0 59.92z"/>
  <path id="_2_65" class="fil2" d="M551.41 2947.22l22.89 -59.67 8.68 0 24.29 59.67 -8.98 0 -6.91 -18.08 -25.12 0 -6.47 18.08 -8.38 0zm17.17 -24.5l20.33 0 -6.22 -16.54c-1.87,-5.03 -3.29,-9.18 -4.28,-12.46 -0.82,3.89 -1.91,7.71 -3.29,11.48l-6.54 17.52z"/>
  <path id="_3_66" class="fil2" d="M649.03 2940.22l0 7 -39.5 0c-0.06,-1.76 0.24,-3.46 0.86,-5.1 1.01,-2.68 2.64,-5.33 4.87,-7.93 2.24,-2.6 5.43,-5.6 9.58,-9 6.46,-5.32 10.85,-9.53 13.14,-12.64 2.31,-3.11 3.46,-6.06 3.46,-8.83 0,-2.9 -1.04,-5.35 -3.13,-7.35 -2.08,-1.99 -4.81,-2.99 -8.15,-2.99 -3.54,0 -6.37,1.06 -8.5,3.17 -2.13,2.1 -3.19,5.02 -3.22,8.75l-7.5 -0.75c0.51,-5.61 2.46,-9.89 5.82,-12.83 3.37,-2.94 7.89,-4.42 13.57,-4.42 5.72,0 10.26,1.58 13.59,4.76 3.35,3.18 5.02,7.13 5.02,11.82 0,2.39 -0.49,4.74 -1.47,7.04 -0.97,2.32 -2.6,4.75 -4.86,7.3 -2.28,2.54 -6.04,6.06 -11.29,10.5 -4.4,3.7 -7.24,6.2 -8.48,7.52 -1.25,1.32 -2.28,2.64 -3.1,3.97l29.29 0z"/>
  <path id="_4_67" class="fil2" d="M658.04 2933.38l7 -0.58c0.6,3.31 1.74,5.7 3.42,7.18 1.68,1.48 3.83,2.24 6.47,2.24 2.25,0 4.22,-0.52 5.93,-1.56 1.71,-1.03 3.1,-2.4 4.17,-4.14 1.07,-1.72 1.97,-4.06 2.71,-6.99 0.74,-2.93 1.09,-5.92 1.09,-8.96 0,-0.32 -0.01,-0.82 -0.04,-1.47 -1.46,2.33 -3.46,4.24 -5.99,5.68 -2.53,1.46 -5.28,2.18 -8.22,2.18 -4.93,0 -9.1,-1.79 -12.52,-5.37 -3.4,-3.57 -5.11,-8.29 -5.11,-14.15 0,-6.06 1.78,-10.92 5.35,-14.61 3.56,-3.68 8.02,-5.53 13.39,-5.53 3.86,0 7.4,1.04 10.63,3.14 3.21,2.08 5.64,5.06 7.3,8.93 1.67,3.86 2.5,9.46 2.5,16.78 0,7.63 -0.82,13.7 -2.47,18.21 -1.65,4.53 -4.13,7.96 -7.39,10.32 -3.26,2.36 -7.08,3.54 -11.47,3.54 -4.67,0 -8.47,-1.29 -11.43,-3.89 -2.94,-2.59 -4.72,-6.25 -5.32,-10.94zm29.92 -26.32c0,-4.19 -1.11,-7.53 -3.33,-9.98 -2.2,-2.46 -4.9,-3.7 -8.07,-3.7 -3.28,0 -6.11,1.32 -8.5,3.97 -2.41,2.65 -3.6,6.1 -3.6,10.32 0,3.79 1.14,6.88 3.4,9.24 2.28,2.38 5.11,3.56 8.49,3.56 3.39,0 6.17,-1.18 8.35,-3.56 2.18,-2.36 3.26,-5.65 3.26,-9.85z"/>
  <path class="fil2" d="M4396.02 917.22l-7.33 0 0 -46.7c-1.76,1.7 -4.08,3.38 -6.94,5.06 -2.86,1.68 -5.44,2.94 -7.72,3.78l0 -7.08c4.1,-1.92 7.68,-4.25 10.75,-7 3.07,-2.74 5.25,-5.39 6.53,-7.97l4.72 0 0 59.92z"/>
  <path id="_1_68" class="fil2" d="M4436.19 917.22l-7.33 0 0 -46.7c-1.76,1.7 -4.08,3.38 -6.94,5.06 -2.86,1.68 -5.44,2.94 -7.72,3.78l0 -7.08c4.1,-1.92 7.68,-4.25 10.75,-7 3.07,-2.74 5.25,-5.39 6.53,-7.97l4.72 0 0 59.92z"/>
  <path id="_2_69" class="fil2" d="M4451.41 917.22l22.89 -59.67 8.68 0 24.29 59.67 -8.98 0 -6.91 -18.08 -25.12 0 -6.47 18.08 -8.38 0zm17.17 -24.5l20.33 0 -6.22 -16.54c-1.87,-5.03 -3.29,-9.18 -4.28,-12.46 -0.82,3.89 -1.91,7.71 -3.29,11.48l-6.54 17.52z"/>
  <path id="_3_70" class="fil2" d="M4510.61 901.55l7.67 -0.59c0.57,3.74 1.89,6.54 3.94,8.43 2.06,1.87 4.57,2.82 7.53,2.82 3.57,0 6.56,-1.33 8.99,-3.99 2.42,-2.67 3.63,-6.19 3.63,-10.58 0,-4.18 -1.15,-7.47 -3.47,-9.89 -2.32,-2.41 -5.39,-3.62 -9.21,-3.62 -2.38,0 -4.5,0.54 -6.39,1.62 -1.87,1.09 -3.35,2.49 -4.43,4.21l-6.92 -1 5.75 -30.67 29.58 0 0 7 -23.74 0 -3.18 16.1c3.57,-2.52 7.32,-3.76 11.24,-3.76 5.19,0 9.58,1.8 13.15,5.42 3.57,3.61 5.36,8.25 5.36,13.91 0,5.41 -1.57,10.07 -4.71,14 -3.82,4.83 -9.04,7.25 -15.65,7.25 -5.41,0 -9.83,-1.53 -13.26,-4.57 -3.43,-3.04 -5.39,-7.07 -5.87,-12.09z"/>
  <path id="_4_71" class="fil2" d="M4595.04 872.13l-7.25 0.58c-0.65,-2.87 -1.58,-4.97 -2.79,-6.28 -1.99,-2.09 -4.44,-3.14 -7.36,-3.14 -2.35,0 -4.43,0.65 -6.22,1.96 -2.3,1.68 -4.11,4.13 -5.46,7.35 -1.33,3.24 -2.03,7.83 -2.08,13.79 1.76,-2.68 3.93,-4.68 6.48,-5.97 2.56,-1.31 5.22,-1.96 8.03,-1.96 4.89,0 9.06,1.81 12.5,5.41 3.43,3.59 5.15,8.24 5.15,13.94 0,3.75 -0.8,7.22 -2.42,10.44 -1.62,3.22 -3.83,5.68 -6.67,7.39 -2.82,1.71 -6.03,2.57 -9.61,2.57 -6.1,0 -11.08,-2.25 -14.94,-6.74 -3.85,-4.48 -5.78,-11.89 -5.78,-22.19 0,-11.53 2.14,-19.92 6.41,-25.15 3.72,-4.56 8.74,-6.83 15.06,-6.83 4.69,0 8.56,1.32 11.56,3.94 3,2.63 4.81,6.25 5.4,10.89zm-30 25.75c0,2.53 0.54,4.94 1.61,7.25 1.07,2.3 2.57,4.06 4.47,5.26 1.92,1.21 3.94,1.82 6.1,1.82 3.13,0 5.79,-1.25 8,-3.75 2.21,-2.5 3.32,-5.89 3.32,-10.18 0,-4.13 -1.09,-7.38 -3.28,-9.75 -2.18,-2.37 -4.96,-3.57 -8.33,-3.57 -3.31,0 -6.13,1.2 -8.43,3.57 -2.31,2.37 -3.46,5.49 -3.46,9.35z"/>
  <path class="fil2" d="M4659.81 917.76l-7.33 0 0 -46.7c-1.76,1.7 -4.08,3.38 -6.94,5.06 -2.86,1.68 -5.44,2.94 -7.72,3.78l0 -7.08c4.1,-1.92 7.68,-4.25 10.75,-7 3.07,-2.74 5.25,-5.39 6.53,-7.97l4.72 0 0 59.92z"/>
  <path id="_1_72" class="fil2" d="M4699.98 917.76l-7.33 0 0 -46.7c-1.76,1.7 -4.08,3.38 -6.94,5.06 -2.86,1.68 -5.44,2.94 -7.72,3.78l0 -7.08c4.1,-1.92 7.68,-4.25 10.75,-7 3.07,-2.74 5.25,-5.39 6.53,-7.97l4.72 0 0 59.92z"/>
  <path id="_2_73" class="fil2" d="M4715.2 917.76l22.89 -59.67 8.68 0 24.29 59.67 -8.98 0 -6.91 -18.08 -25.12 0 -6.47 18.08 -8.38 0zm17.17 -24.5l20.33 0 -6.22 -16.54c-1.87,-5.03 -3.29,-9.18 -4.28,-12.46 -0.82,3.89 -1.91,7.71 -3.29,11.48l-6.54 17.52z"/>
  <path id="_3_74" class="fil2" d="M4774.41 902.09l7.67 -0.59c0.57,3.74 1.89,6.54 3.94,8.43 2.06,1.87 4.57,2.82 7.53,2.82 3.57,0 6.56,-1.33 8.99,-3.99 2.42,-2.67 3.63,-6.19 3.63,-10.58 0,-4.18 -1.15,-7.47 -3.47,-9.89 -2.32,-2.41 -5.39,-3.62 -9.21,-3.62 -2.38,0 -4.5,0.54 -6.39,1.62 -1.87,1.09 -3.35,2.49 -4.43,4.21l-6.92 -1 5.75 -30.67 29.58 0 0 7 -23.74 0 -3.18 16.1c3.57,-2.52 7.32,-3.76 11.24,-3.76 5.19,0 9.58,1.8 13.15,5.42 3.57,3.61 5.36,8.25 5.36,13.91 0,5.41 -1.57,10.07 -4.71,14 -3.82,4.83 -9.04,7.25 -15.65,7.25 -5.41,0 -9.83,-1.53 -13.26,-4.57 -3.43,-3.04 -5.39,-7.07 -5.87,-12.09z"/>
  <path id="_4_75" class="fil2" d="M4832.04 885.41c-3.04,-1.11 -5.29,-2.71 -6.76,-4.76 -1.46,-2.07 -2.19,-4.54 -2.19,-7.42 0,-4.35 1.56,-7.99 4.67,-10.94 3.13,-2.96 7.26,-4.44 12.44,-4.44 5.19,0 9.39,1.51 12.56,4.54 3.17,3.03 4.75,6.7 4.75,11.06 0,2.76 -0.72,5.18 -2.17,7.22 -1.44,2.06 -3.64,3.64 -6.59,4.75 3.65,1.19 6.41,3.11 8.32,5.78 1.9,2.65 2.86,5.82 2.86,9.52 0,5.1 -1.81,9.37 -5.41,12.85 -3.61,3.47 -8.35,5.21 -14.22,5.21 -5.88,0 -10.61,-1.74 -14.22,-5.22 -3.6,-3.49 -5.4,-7.83 -5.4,-13.04 0,-3.87 0.98,-7.13 2.96,-9.74 1.97,-2.63 4.78,-4.4 8.42,-5.35zm-1.46 -12.44c0,2.83 0.9,5.14 2.69,6.93 1.81,1.79 4.17,2.7 7.1,2.7 2.85,0 5.15,-0.89 6.94,-2.67 1.79,-1.78 2.68,-3.96 2.68,-6.54 0,-2.7 -0.92,-4.96 -2.76,-6.8 -1.83,-1.83 -4.15,-2.75 -6.94,-2.75 -2.82,0 -5.14,0.9 -6.97,2.69 -1.82,1.79 -2.74,3.93 -2.74,6.43zm-2.42 27.58c0,2.1 0.48,4.11 1.46,6.07 0.97,1.94 2.44,3.46 4.42,4.53 1.96,1.07 4.07,1.61 6.31,1.61 3.53,0 6.42,-1.13 8.68,-3.37 2.26,-2.25 3.39,-5.11 3.39,-8.58 0,-3.53 -1.17,-6.44 -3.48,-8.75 -2.33,-2.31 -5.28,-3.46 -8.82,-3.46 -3.47,0 -6.32,1.14 -8.57,3.41 -2.25,2.28 -3.37,5.13 -3.37,8.54z"/>
  <path class="fil2" d="M4536.02 1417.22l-7.33 0 0 -46.7c-1.76,1.7 -4.08,3.38 -6.94,5.06 -2.86,1.68 -5.44,2.94 -7.72,3.78l0 -7.08c4.1,-1.92 7.68,-4.25 10.75,-7 3.07,-2.74 5.25,-5.39 6.53,-7.97l4.72 0 0 59.92z"/>
  <path id="_1_76" class="fil2" d="M4576.19 1417.22l-7.33 0 0 -46.7c-1.76,1.7 -4.08,3.38 -6.94,5.06 -2.86,1.68 -5.44,2.94 -7.72,3.78l0 -7.08c4.1,-1.92 7.68,-4.25 10.75,-7 3.07,-2.74 5.25,-5.39 6.53,-7.97l4.72 0 0 59.92z"/>
  <path id="_2_77" class="fil2" d="M4591.41 1417.22l22.89 -59.67 8.68 0 24.29 59.67 -8.98 0 -6.91 -18.08 -25.12 0 -6.47 18.08 -8.38 0zm17.17 -24.5l20.33 0 -6.22 -16.54c-1.87,-5.03 -3.29,-9.18 -4.28,-12.46 -0.82,3.89 -1.91,7.71 -3.29,11.48l-6.54 17.52z"/>
  <path id="_3_78" class="fil2" d="M4688.7 1372.13l-7.25 0.58c-0.65,-2.87 -1.58,-4.97 -2.79,-6.28 -1.99,-2.09 -4.44,-3.14 -7.36,-3.14 -2.35,0 -4.43,0.65 -6.22,1.96 -2.3,1.68 -4.11,4.13 -5.46,7.35 -1.33,3.24 -2.03,7.83 -2.08,13.79 1.76,-2.68 3.93,-4.68 6.48,-5.97 2.56,-1.31 5.22,-1.96 8.03,-1.96 4.89,0 9.06,1.81 12.5,5.41 3.43,3.59 5.15,8.24 5.15,13.94 0,3.75 -0.8,7.22 -2.42,10.44 -1.62,3.22 -3.83,5.68 -6.67,7.39 -2.82,1.71 -6.03,2.57 -9.61,2.57 -6.1,0 -11.08,-2.25 -14.94,-6.74 -3.85,-4.48 -5.78,-11.89 -5.78,-22.19 0,-11.53 2.14,-19.92 6.41,-25.15 3.72,-4.56 8.74,-6.83 15.06,-6.83 4.69,0 8.56,1.32 11.56,3.94 3,2.63 4.81,6.25 5.4,10.89zm-30 25.75c0,2.53 0.54,4.94 1.61,7.25 1.07,2.3 2.57,4.06 4.47,5.26 1.92,1.21 3.94,1.82 6.1,1.82 3.13,0 5.79,-1.25 8,-3.75 2.21,-2.5 3.32,-5.89 3.32,-10.18 0,-4.13 -1.09,-7.38 -3.28,-9.75 -2.18,-2.37 -4.96,-3.57 -8.33,-3.57 -3.31,0 -6.13,1.2 -8.43,3.57 -2.31,2.37 -3.46,5.49 -3.46,9.35z"/>
  <path id="_4_79" class="fil2" d="M4696.96 1387.77c0,-7.04 0.72,-12.74 2.17,-17.04 1.46,-4.32 3.61,-7.64 6.47,-9.96 2.85,-2.32 6.44,-3.47 10.78,-3.47 3.19,0 6,0.64 8.43,1.93 2.42,1.29 4.42,3.15 5.97,5.58 1.56,2.42 2.78,5.38 3.67,8.86 0.9,3.49 1.35,8.2 1.35,14.1 0,7 -0.72,12.67 -2.15,16.97 -1.43,4.32 -3.58,7.64 -6.44,9.97 -2.85,2.33 -6.46,3.5 -10.82,3.5 -5.74,0 -10.25,-2.04 -13.53,-6.14 -3.93,-5 -5.89,-13.1 -5.89,-24.31zm7.5 0.03c0,9.82 1.14,16.35 3.43,19.57 2.3,3.24 5.13,4.85 8.49,4.85 3.36,0 6.19,-1.63 8.48,-4.86 2.3,-3.25 3.43,-9.76 3.43,-19.56 0,-9.82 -1.14,-16.35 -3.43,-19.57 -2.28,-3.24 -5.14,-4.85 -8.57,-4.85 -3.36,0 -6.06,1.43 -8.07,4.28 -2.51,3.62 -3.76,10.35 -3.76,20.14z"/>
  <path class="fil2" d="M3656.02 1417.22l-7.33 0 0 -46.7c-1.76,1.7 -4.08,3.38 -6.94,5.06 -2.86,1.68 -5.44,2.94 -7.72,3.78l0 -7.08c4.1,-1.92 7.68,-4.25 10.75,-7 3.07,-2.74 5.25,-5.39 6.53,-7.97l4.72 0 0 59.92z"/>
  <path id="_1_80" class="fil2" d="M3696.19 1417.22l-7.33 0 0 -46.7c-1.76,1.7 -4.08,3.38 -6.94,5.06 -2.86,1.68 -5.44,2.94 -7.72,3.78l0 -7.08c4.1,-1.92 7.68,-4.25 10.75,-7 3.07,-2.74 5.25,-5.39 6.53,-7.97l4.72 0 0 59.92z"/>
  <path id="_2_81" class="fil2" d="M3711.41 1417.22l22.89 -59.67 8.68 0 24.29 59.67 -8.98 0 -6.91 -18.08 -25.12 0 -6.47 18.08 -8.38 0zm17.17 -24.5l20.33 0 -6.22 -16.54c-1.87,-5.03 -3.29,-9.18 -4.28,-12.46 -0.82,3.89 -1.91,7.71 -3.29,11.48l-6.54 17.52z"/>
  <path id="_3_82" class="fil2" d="M3770.61 1401.55l7.67 -0.59c0.57,3.74 1.89,6.54 3.94,8.43 2.06,1.87 4.57,2.82 7.53,2.82 3.57,0 6.56,-1.33 8.99,-3.99 2.42,-2.67 3.63,-6.19 3.63,-10.58 0,-4.18 -1.15,-7.47 -3.47,-9.89 -2.32,-2.41 -5.39,-3.62 -9.21,-3.62 -2.38,0 -4.5,0.54 -6.39,1.62 -1.87,1.09 -3.35,2.49 -4.43,4.21l-6.92 -1 5.75 -30.67 29.58 0 0 7 -23.74 0 -3.18 16.1c3.57,-2.52 7.32,-3.76 11.24,-3.76 5.19,0 9.58,1.8 13.15,5.42 3.57,3.61 5.36,8.25 5.36,13.91 0,5.41 -1.57,10.07 -4.71,14 -3.82,4.83 -9.04,7.25 -15.65,7.25 -5.41,0 -9.83,-1.53 -13.26,-4.57 -3.43,-3.04 -5.39,-7.07 -5.87,-12.09z"/>
  <path id="_4_83" class="fil2" d="M3816.96 1387.77c0,-7.04 0.72,-12.74 2.17,-17.04 1.46,-4.32 3.61,-7.64 6.47,-9.96 2.85,-2.32 6.44,-3.47 10.78,-3.47 3.19,0 6,0.64 8.43,1.93 2.42,1.29 4.42,3.15 5.97,5.58 1.56,2.42 2.78,5.38 3.67,8.86 0.9,3.49 1.35,8.2 1.35,14.1 0,7 -0.72,12.67 -2.15,16.97 -1.43,4.32 -3.58,7.64 -6.44,9.97 -2.85,2.33 -6.46,3.5 -10.82,3.5 -5.74,0 -10.25,-2.04 -13.53,-6.14 -3.93,-5 -5.89,-13.1 -5.89,-24.31zm7.5 0.03c0,9.82 1.14,16.35 3.43,19.57 2.3,3.24 5.13,4.85 8.49,4.85 3.36,0 6.19,-1.63 8.48,-4.86 2.3,-3.25 3.43,-9.76 3.43,-19.56 0,-9.82 -1.14,-16.35 -3.43,-19.57 -2.28,-3.24 -5.14,-4.85 -8.57,-4.85 -3.36,0 -6.06,1.43 -8.07,4.28 -2.51,3.62 -3.76,10.35 -3.76,20.14z"/>
  <path class="fil2" d="M5626.02 917.22l-7.33 0 0 -46.7c-1.76,1.7 -4.08,3.38 -6.94,5.06 -2.86,1.68 -5.44,2.94 -7.72,3.78l0 -7.08c4.1,-1.92 7.68,-4.25 10.75,-7 3.07,-2.74 5.25,-5.39 6.53,-7.97l4.72 0 0 59.92z"/>
  <path id="_1_84" class="fil2" d="M5666.19 917.22l-7.33 0 0 -46.7c-1.76,1.7 -4.08,3.38 -6.94,5.06 -2.86,1.68 -5.44,2.94 -7.72,3.78l0 -7.08c4.1,-1.92 7.68,-4.25 10.75,-7 3.07,-2.74 5.25,-5.39 6.53,-7.97l4.72 0 0 59.92z"/>
  <path id="_2_85" class="fil2" d="M5681.41 917.22l22.89 -59.67 8.68 0 24.29 59.67 -8.98 0 -6.91 -18.08 -25.12 0 -6.47 18.08 -8.38 0zm17.17 -24.5l20.33 0 -6.22 -16.54c-1.87,-5.03 -3.29,-9.18 -4.28,-12.46 -0.82,3.89 -1.91,7.71 -3.29,11.48l-6.54 17.52z"/>
  <path id="_3_86" class="fil2" d="M5778.7 872.13l-7.25 0.58c-0.65,-2.87 -1.58,-4.97 -2.79,-6.28 -1.99,-2.09 -4.44,-3.14 -7.36,-3.14 -2.35,0 -4.43,0.65 -6.22,1.96 -2.3,1.68 -4.11,4.13 -5.46,7.35 -1.33,3.24 -2.03,7.83 -2.08,13.79 1.76,-2.68 3.93,-4.68 6.48,-5.97 2.56,-1.31 5.22,-1.96 8.03,-1.96 4.89,0 9.06,1.81 12.5,5.41 3.43,3.59 5.15,8.24 5.15,13.94 0,3.75 -0.8,7.22 -2.42,10.44 -1.62,3.22 -3.83,5.68 -6.67,7.39 -2.82,1.71 -6.03,2.57 -9.61,2.57 -6.1,0 -11.08,-2.25 -14.94,-6.74 -3.85,-4.48 -5.78,-11.89 -5.78,-22.19 0,-11.53 2.14,-19.92 6.41,-25.15 3.72,-4.56 8.74,-6.83 15.06,-6.83 4.69,0 8.56,1.32 11.56,3.94 3,2.63 4.81,6.25 5.4,10.89zm-30 25.75c0,2.53 0.54,4.94 1.61,7.25 1.07,2.3 2.57,4.06 4.47,5.26 1.92,1.21 3.94,1.82 6.1,1.82 3.13,0 5.79,-1.25 8,-3.75 2.21,-2.5 3.32,-5.89 3.32,-10.18 0,-4.13 -1.09,-7.38 -3.28,-9.75 -2.18,-2.37 -4.96,-3.57 -8.33,-3.57 -3.31,0 -6.13,1.2 -8.43,3.57 -2.31,2.37 -3.46,5.49 -3.46,9.35z"/>
  <path id="_4_87" class="fil2" d="M5825.04 872.13l-7.25 0.58c-0.65,-2.87 -1.58,-4.97 -2.79,-6.28 -1.99,-2.09 -4.44,-3.14 -7.36,-3.14 -2.35,0 -4.43,0.65 -6.22,1.96 -2.3,1.68 -4.11,4.13 -5.46,7.35 -1.33,3.24 -2.03,7.83 -2.08,13.79 1.76,-2.68 3.93,-4.68 6.48,-5.97 2.56,-1.31 5.22,-1.96 8.03,-1.96 4.89,0 9.06,1.81 12.5,5.41 3.43,3.59 5.15,8.24 5.15,13.94 0,3.75 -0.8,7.22 -2.42,10.44 -1.62,3.22 -3.83,5.68 -6.67,7.39 -2.82,1.71 -6.03,2.57 -9.61,2.57 -6.1,0 -11.08,-2.25 -14.94,-6.74 -3.85,-4.48 -5.78,-11.89 -5.78,-22.19 0,-11.53 2.14,-19.92 6.41,-25.15 3.72,-4.56 8.74,-6.83 15.06,-6.83 4.69,0 8.56,1.32 11.56,3.94 3,2.63 4.81,6.25 5.4,10.89zm-30 25.75c0,2.53 0.54,4.94 1.61,7.25 1.07,2.3 2.57,4.06 4.47,5.26 1.92,1.21 3.94,1.82 6.1,1.82 3.13,0 5.79,-1.25 8,-3.75 2.21,-2.5 3.32,-5.89 3.32,-10.18 0,-4.13 -1.09,-7.38 -3.28,-9.75 -2.18,-2.37 -4.96,-3.57 -8.33,-3.57 -3.31,0 -6.13,1.2 -8.43,3.57 -2.31,2.37 -3.46,5.49 -3.46,9.35z"/>
  <path class="fil2" d="M5361.52 2831.87l-7.33 0 0 -46.7c-1.76,1.7 -4.08,3.38 -6.94,5.06 -2.86,1.68 -5.44,2.94 -7.72,3.78l0 -7.08c4.1,-1.92 7.68,-4.25 10.75,-7 3.07,-2.74 5.25,-5.39 6.53,-7.97l4.72 0 0 59.92z"/>
  <path id="_1_88" class="fil2" d="M5401.69 2831.87l-7.33 0 0 -46.7c-1.76,1.7 -4.08,3.38 -6.94,5.06 -2.86,1.68 -5.44,2.94 -7.72,3.78l0 -7.08c4.1,-1.92 7.68,-4.25 10.75,-7 3.07,-2.74 5.25,-5.39 6.53,-7.97l4.72 0 0 59.92z"/>
  <path id="_2_89" class="fil2" d="M5416.91 2831.87l22.89 -59.67 8.68 0 24.29 59.67 -8.98 0 -6.91 -18.08 -25.12 0 -6.47 18.08 -8.38 0zm17.17 -24.5l20.33 0 -6.22 -16.54c-1.87,-5.03 -3.29,-9.18 -4.28,-12.46 -0.82,3.89 -1.91,7.71 -3.29,11.48l-6.54 17.52z"/>
  <path id="_3_90" class="fil2" d="M5477.2 2818.03l7 -0.58c0.6,3.31 1.74,5.7 3.42,7.18 1.68,1.48 3.83,2.24 6.47,2.24 2.25,0 4.22,-0.52 5.93,-1.56 1.71,-1.03 3.1,-2.4 4.17,-4.14 1.07,-1.72 1.97,-4.06 2.71,-6.99 0.74,-2.93 1.09,-5.92 1.09,-8.96 0,-0.32 -0.01,-0.82 -0.04,-1.47 -1.46,2.33 -3.46,4.24 -5.99,5.68 -2.53,1.46 -5.28,2.18 -8.22,2.18 -4.93,0 -9.1,-1.79 -12.52,-5.37 -3.4,-3.57 -5.11,-8.29 -5.11,-14.15 0,-6.06 1.78,-10.92 5.35,-14.61 3.56,-3.68 8.02,-5.53 13.39,-5.53 3.86,0 7.4,1.04 10.63,3.14 3.21,2.08 5.64,5.06 7.3,8.93 1.67,3.86 2.5,9.46 2.5,16.78 0,7.63 -0.82,13.7 -2.47,18.21 -1.65,4.53 -4.13,7.96 -7.39,10.32 -3.26,2.36 -7.08,3.54 -11.47,3.54 -4.67,0 -8.47,-1.29 -11.43,-3.89 -2.94,-2.59 -4.72,-6.25 -5.32,-10.94zm29.92 -26.32c0,-4.19 -1.11,-7.53 -3.33,-9.98 -2.2,-2.46 -4.9,-3.7 -8.07,-3.7 -3.28,0 -6.11,1.32 -8.5,3.97 -2.41,2.65 -3.6,6.1 -3.6,10.32 0,3.79 1.14,6.88 3.4,9.24 2.28,2.38 5.11,3.56 8.49,3.56 3.39,0 6.17,-1.18 8.35,-3.56 2.18,-2.36 3.26,-5.65 3.26,-9.85z"/>
  <path id="_4_91" class="fil2" d="M5522.46 2816.03l7.33 -1c0.85,4.17 2.26,7.17 4.28,9 2.02,1.83 4.49,2.75 7.42,2.75 3.47,0 6.4,-1.2 8.76,-3.58 2.36,-2.39 3.54,-5.35 3.54,-8.88 0,-3.36 -1.1,-6.14 -3.31,-8.33 -2.19,-2.18 -4.98,-3.28 -8.39,-3.28 -1.39,0 -3.11,0.28 -5.18,0.82l0.82 -6.42c0.48,0.06 0.89,0.09 1.18,0.09 3.14,0 5.94,-0.82 8.46,-2.44 2.5,-1.63 3.75,-4.13 3.75,-7.5 0,-2.68 -0.91,-4.91 -2.74,-6.67 -1.82,-1.76 -4.17,-2.64 -7.04,-2.64 -2.86,0 -5.24,0.9 -7.14,2.71 -1.91,1.8 -3.13,4.51 -3.67,8.13l-7.33 -1.33c0.9,-4.92 2.93,-8.74 6.11,-11.44 3.17,-2.71 7.13,-4.06 11.85,-4.06 3.25,0 6.25,0.69 8.99,2.1 2.75,1.39 4.85,3.29 6.29,5.69 1.46,2.42 2.18,4.97 2.18,7.68 0,2.57 -0.69,4.9 -2.07,7.01 -1.39,2.11 -3.44,3.8 -6.15,5.04 3.53,0.81 6.26,2.5 8.22,5.07 1.94,2.56 2.92,5.78 2.92,9.63 0,5.2 -1.9,9.64 -5.69,13.26 -3.81,3.62 -8.61,5.43 -14.42,5.43 -5.24,0 -9.58,-1.57 -13.04,-4.69 -3.47,-3.13 -5.44,-7.17 -5.93,-12.14z"/>
  <path class="fil2" d="M6345.77 2316.96l-7.33 0 0 -46.7c-1.76,1.7 -4.08,3.38 -6.94,5.06 -2.86,1.68 -5.44,2.94 -7.72,3.78l0 -7.08c4.1,-1.92 7.68,-4.25 10.75,-7 3.07,-2.74 5.25,-5.39 6.53,-7.97l4.72 0 0 59.92z"/>
  <path id="_1_92" class="fil2" d="M6385.93 2316.96l-7.33 0 0 -46.7c-1.76,1.7 -4.08,3.38 -6.94,5.06 -2.86,1.68 -5.44,2.94 -7.72,3.78l0 -7.08c4.1,-1.92 7.68,-4.25 10.75,-7 3.07,-2.74 5.25,-5.39 6.53,-7.97l4.72 0 0 59.92z"/>
  <path id="_2_93" class="fil2" d="M6401.15 2316.96l22.89 -59.67 8.68 0 24.29 59.67 -8.98 0 -6.91 -18.08 -25.12 0 -6.47 18.08 -8.38 0zm17.17 -24.5l20.33 0 -6.22 -16.54c-1.87,-5.03 -3.29,-9.18 -4.28,-12.46 -0.82,3.89 -1.91,7.71 -3.29,11.48l-6.54 17.52z"/>
  <path id="_3_94" class="fil2" d="M6471.65 2284.61c-3.04,-1.11 -5.29,-2.71 -6.76,-4.76 -1.46,-2.07 -2.19,-4.54 -2.19,-7.42 0,-4.35 1.56,-7.99 4.67,-10.94 3.13,-2.96 7.26,-4.44 12.44,-4.44 5.19,0 9.39,1.51 12.56,4.54 3.17,3.03 4.75,6.7 4.75,11.06 0,2.76 -0.72,5.18 -2.17,7.22 -1.44,2.06 -3.64,3.64 -6.59,4.75 3.65,1.19 6.41,3.11 8.32,5.78 1.9,2.65 2.86,5.82 2.86,9.52 0,5.1 -1.81,9.37 -5.41,12.85 -3.61,3.47 -8.35,5.21 -14.22,5.21 -5.88,0 -10.61,-1.74 -14.22,-5.22 -3.6,-3.49 -5.4,-7.83 -5.4,-13.04 0,-3.87 0.98,-7.13 2.96,-9.74 1.97,-2.63 4.78,-4.4 8.42,-5.35zm-1.46 -12.44c0,2.83 0.9,5.14 2.69,6.93 1.81,1.79 4.17,2.7 7.1,2.7 2.85,0 5.15,-0.89 6.94,-2.67 1.79,-1.78 2.68,-3.96 2.68,-6.54 0,-2.7 -0.92,-4.96 -2.76,-6.8 -1.83,-1.83 -4.15,-2.75 -6.94,-2.75 -2.82,0 -5.14,0.9 -6.97,2.69 -1.82,1.79 -2.74,3.93 -2.74,6.43zm-2.42 27.58c0,2.1 0.48,4.11 1.46,6.07 0.97,1.94 2.44,3.46 4.42,4.53 1.96,1.07 4.07,1.61 6.31,1.61 3.53,0 6.42,-1.13 8.68,-3.37 2.26,-2.25 3.39,-5.11 3.39,-8.58 0,-3.53 -1.17,-6.44 -3.48,-8.75 -2.33,-2.31 -5.28,-3.46 -8.82,-3.46 -3.47,0 -6.32,1.14 -8.57,3.41 -2.25,2.28 -3.37,5.13 -3.37,8.54z"/>
  <path id="_4_95" class="fil2" d="M6507.79 2303.13l7 -0.58c0.6,3.31 1.74,5.7 3.42,7.18 1.68,1.48 3.83,2.24 6.47,2.24 2.25,0 4.22,-0.52 5.93,-1.56 1.71,-1.03 3.1,-2.4 4.17,-4.14 1.07,-1.72 1.97,-4.06 2.71,-6.99 0.74,-2.93 1.09,-5.92 1.09,-8.96 0,-0.32 -0.01,-0.82 -0.04,-1.47 -1.46,2.33 -3.46,4.24 -5.99,5.68 -2.53,1.46 -5.28,2.18 -8.22,2.18 -4.93,0 -9.1,-1.79 -12.52,-5.37 -3.4,-3.57 -5.11,-8.29 -5.11,-14.15 0,-6.06 1.78,-10.92 5.35,-14.61 3.56,-3.68 8.02,-5.53 13.39,-5.53 3.86,0 7.4,1.04 10.63,3.14 3.21,2.08 5.64,5.06 7.3,8.93 1.67,3.86 2.5,9.46 2.5,16.78 0,7.63 -0.82,13.7 -2.47,18.21 -1.65,4.53 -4.13,7.96 -7.39,10.32 -3.26,2.36 -7.08,3.54 -11.47,3.54 -4.67,0 -8.47,-1.29 -11.43,-3.89 -2.94,-2.59 -4.72,-6.25 -5.32,-10.94zm29.92 -26.32c0,-4.19 -1.11,-7.53 -3.33,-9.98 -2.2,-2.46 -4.9,-3.7 -8.07,-3.7 -3.28,0 -6.11,1.32 -8.5,3.97 -2.41,2.65 -3.6,6.1 -3.6,10.32 0,3.79 1.14,6.88 3.4,9.24 2.28,2.38 5.11,3.56 8.49,3.56 3.39,0 6.17,-1.18 8.35,-3.56 2.18,-2.36 3.26,-5.65 3.26,-9.85z"/>
  <path class="fil2" d="M6401.15 2069.2l-7.33 0 0 -46.7c-1.76,1.7 -4.08,3.38 -6.94,5.06 -2.86,1.68 -5.44,2.94 -7.72,3.78l0 -7.08c4.1,-1.92 7.68,-4.25 10.75,-7 3.07,-2.74 5.25,-5.39 6.53,-7.97l4.72 0 0 59.92z"/>
  <path id="_1_96" class="fil2" d="M6441.31 2069.2l-7.33 0 0 -46.7c-1.76,1.7 -4.08,3.38 -6.94,5.06 -2.86,1.68 -5.44,2.94 -7.72,3.78l0 -7.08c4.1,-1.92 7.68,-4.25 10.75,-7 3.07,-2.74 5.25,-5.39 6.53,-7.97l4.72 0 0 59.92z"/>
  <path id="_2_97" class="fil2" d="M6456.54 2069.2l22.89 -59.67 8.68 0 24.29 59.67 -8.98 0 -6.91 -18.08 -25.12 0 -6.47 18.08 -8.38 0zm17.17 -24.5l20.33 0 -6.22 -16.54c-1.87,-5.03 -3.29,-9.18 -4.28,-12.46 -0.82,3.89 -1.91,7.71 -3.29,11.48l-6.54 17.52z"/>
  <path id="_3_98" class="fil2" d="M6527.04 2036.85c-3.04,-1.11 -5.29,-2.71 -6.76,-4.76 -1.46,-2.07 -2.19,-4.54 -2.19,-7.42 0,-4.35 1.56,-7.99 4.67,-10.94 3.13,-2.96 7.26,-4.44 12.44,-4.44 5.19,0 9.39,1.51 12.56,4.54 3.17,3.03 4.75,6.7 4.75,11.06 0,2.76 -0.72,5.18 -2.17,7.22 -1.44,2.06 -3.64,3.64 -6.59,4.75 3.65,1.19 6.41,3.11 8.32,5.78 1.9,2.65 2.86,5.82 2.86,9.52 0,5.1 -1.81,9.37 -5.41,12.85 -3.61,3.47 -8.35,5.21 -14.22,5.21 -5.88,0 -10.61,-1.74 -14.22,-5.22 -3.6,-3.49 -5.4,-7.83 -5.4,-13.04 0,-3.87 0.98,-7.13 2.96,-9.74 1.97,-2.63 4.78,-4.4 8.42,-5.35zm-1.46 -12.44c0,2.83 0.9,5.14 2.69,6.93 1.81,1.79 4.17,2.7 7.1,2.7 2.85,0 5.15,-0.89 6.94,-2.67 1.79,-1.78 2.68,-3.96 2.68,-6.54 0,-2.7 -0.92,-4.96 -2.76,-6.8 -1.83,-1.83 -4.15,-2.75 -6.94,-2.75 -2.82,0 -5.14,0.9 -6.97,2.69 -1.82,1.79 -2.74,3.93 -2.74,6.43zm-2.42 27.58c0,2.1 0.48,4.11 1.46,6.07 0.97,1.94 2.44,3.46 4.42,4.53 1.96,1.07 4.07,1.61 6.31,1.61 3.53,0 6.42,-1.13 8.68,-3.37 2.26,-2.25 3.39,-5.11 3.39,-8.58 0,-3.53 -1.17,-6.44 -3.48,-8.75 -2.33,-2.31 -5.28,-3.46 -8.82,-3.46 -3.47,0 -6.32,1.14 -8.57,3.41 -2.25,2.28 -3.37,5.13 -3.37,8.54z"/>
  <path id="_4_99" class="fil2" d="M6562.51 2017.28l0 -7 38.58 0 0 5.67c-3.79,4.04 -7.57,9.42 -11.29,16.13 -3.74,6.71 -6.61,13.61 -8.65,20.71 -1.46,4.99 -2.4,10.47 -2.8,16.42l-7.5 0c0.08,-4.69 1,-10.37 2.76,-17.03 1.76,-6.67 4.28,-13.08 7.57,-19.26 3.29,-6.18 6.79,-11.39 10.5,-15.63l-29.17 0z"/>
  <path class="fil2" d="M6488.08 1697.23l-7.33 0 0 -46.7c-1.76,1.7 -4.08,3.38 -6.94,5.06 -2.86,1.68 -5.44,2.94 -7.72,3.78l0 -7.08c4.1,-1.92 7.68,-4.25 10.75,-7 3.07,-2.74 5.25,-5.39 6.53,-7.97l4.72 0 0 59.92z"/>
  <path id="_1_100" class="fil2" d="M6528.25 1697.23l-7.33 0 0 -46.7c-1.76,1.7 -4.08,3.38 -6.94,5.06 -2.86,1.68 -5.44,2.94 -7.72,3.78l0 -7.08c4.1,-1.92 7.68,-4.25 10.75,-7 3.07,-2.74 5.25,-5.39 6.53,-7.97l4.72 0 0 59.92z"/>
  <path id="_2_101" class="fil2" d="M6543.47 1697.23l22.89 -59.67 8.68 0 24.29 59.67 -8.98 0 -6.91 -18.08 -25.12 0 -6.47 18.08 -8.38 0zm17.17 -24.5l20.33 0 -6.22 -16.54c-1.87,-5.03 -3.29,-9.18 -4.28,-12.46 -0.82,3.89 -1.91,7.71 -3.29,11.48l-6.54 17.52z"/>
  <path id="_3_102" class="fil2" d="M6613.97 1664.88c-3.04,-1.11 -5.29,-2.71 -6.76,-4.76 -1.46,-2.07 -2.19,-4.54 -2.19,-7.42 0,-4.35 1.56,-7.99 4.67,-10.94 3.13,-2.96 7.26,-4.44 12.44,-4.44 5.19,0 9.39,1.51 12.56,4.54 3.17,3.03 4.75,6.7 4.75,11.06 0,2.76 -0.72,5.18 -2.17,7.22 -1.44,2.06 -3.64,3.64 -6.59,4.75 3.65,1.19 6.41,3.11 8.32,5.78 1.9,2.65 2.86,5.82 2.86,9.52 0,5.1 -1.81,9.37 -5.41,12.85 -3.61,3.47 -8.35,5.21 -14.22,5.21 -5.88,0 -10.61,-1.74 -14.22,-5.22 -3.6,-3.49 -5.4,-7.83 -5.4,-13.04 0,-3.87 0.98,-7.13 2.96,-9.74 1.97,-2.63 4.78,-4.4 8.42,-5.35zm-1.46 -12.44c0,2.83 0.9,5.14 2.69,6.93 1.81,1.79 4.17,2.7 7.1,2.7 2.85,0 5.15,-0.89 6.94,-2.67 1.79,-1.78 2.68,-3.96 2.68,-6.54 0,-2.7 -0.92,-4.96 -2.76,-6.8 -1.83,-1.83 -4.15,-2.75 -6.94,-2.75 -2.82,0 -5.14,0.9 -6.97,2.69 -1.82,1.79 -2.74,3.93 -2.74,6.43zm-2.42 27.58c0,2.1 0.48,4.11 1.46,6.07 0.97,1.94 2.44,3.46 4.42,4.53 1.96,1.07 4.07,1.61 6.31,1.61 3.53,0 6.42,-1.13 8.68,-3.37 2.26,-2.25 3.39,-5.11 3.39,-8.58 0,-3.53 -1.17,-6.44 -3.48,-8.75 -2.33,-2.31 -5.28,-3.46 -8.82,-3.46 -3.47,0 -6.32,1.14 -8.57,3.41 -2.25,2.28 -3.37,5.13 -3.37,8.54z"/>
  <path id="_4_103" class="fil2" d="M6649.02 1681.56l7.67 -0.59c0.57,3.74 1.89,6.54 3.94,8.43 2.06,1.87 4.57,2.82 7.53,2.82 3.57,0 6.56,-1.33 8.99,-3.99 2.42,-2.67 3.63,-6.19 3.63,-10.58 0,-4.18 -1.15,-7.47 -3.47,-9.89 -2.32,-2.41 -5.39,-3.62 -9.21,-3.62 -2.38,0 -4.5,0.54 -6.39,1.62 -1.87,1.09 -3.35,2.49 -4.43,4.21l-6.92 -1 5.75 -30.67 29.58 0 0 7 -23.74 0 -3.18 16.1c3.57,-2.52 7.32,-3.76 11.24,-3.76 5.19,0 9.58,1.8 13.15,5.42 3.57,3.61 5.36,8.25 5.36,13.91 0,5.41 -1.57,10.07 -4.71,14 -3.82,4.83 -9.04,7.25 -15.65,7.25 -5.41,0 -9.83,-1.53 -13.26,-4.57 -3.43,-3.04 -5.39,-7.07 -5.87,-12.09z"/>
  <line class="fil1 str16" x1="3338.63" y1="696.3" x2="3338.63" y2= "1061.74" />
  <polygon class="fil2" points="1261.72,1659.64 1261.72,1557.2 1335.69,1557.2 1335.69,1569.21 1275.31,1569.21 1275.31,1600.69 1331.83,1600.69 1331.83,1612.71 1275.31,1612.71 1275.31,1647.62 1338.13,1647.62 1338.13,1659.64 "/>
  <polygon id="_1_104" class="fil2" points="1355.01,1659.64 1355.01,1557.2 1367.6,1557.2 1367.6,1659.64 "/>
  <path id="_2_105" class="fil2" d="M1437.73 1635.6l13.02 1.72c-2.03,7.56 -5.82,13.45 -11.35,17.62 -5.53,4.17 -12.59,6.27 -21.2,6.27 -10.83,0 -19.41,-3.34 -25.76,-10.02 -6.34,-6.65 -9.51,-16.02 -9.51,-28.07 0,-12.45 3.19,-22.13 9.61,-29 6.41,-6.89 14.74,-10.33 24.96,-10.33 9.9,0 17.98,3.36 24.25,10.11 6.27,6.75 9.42,16.24 9.42,28.47 0,0.74 -0.02,1.86 -0.07,3.34l-55.3 0c0.48,8.13 2.77,14.38 6.92,18.7 4.13,4.31 9.3,6.48 15.48,6.48 4.6,0 8.54,-1.22 11.78,-3.65 3.27,-2.43 5.84,-6.32 7.75,-11.66zm-41.2 -20.17l41.35 0c-0.55,-6.25 -2.15,-10.92 -4.75,-14.05 -3.98,-4.84 -9.18,-7.27 -15.55,-7.27 -5.77,0 -10.61,1.93 -14.54,5.8 -3.91,3.86 -6.08,9.04 -6.51,15.52z"/>
  <path id="_3_106" class="fil2" d="M1486.95 1659.64l-28.02 -74.26 13.47 0 15.88 44.47c1.72,4.79 3.31,9.78 4.77,14.95 1.12,-3.91 2.67,-8.61 4.7,-14.12l16.5 -45.31 12.93 0 -28.11 74.26 -12.11 0z"/>
  <path id="_4_107" class="fil2" d="M1586.69 1650.34c-4.67,3.98 -9.18,6.77 -13.5,8.42 -4.31,1.65 -8.94,2.46 -13.9,2.46 -8.16,0 -14.43,-1.98 -18.81,-5.96 -4.39,-3.96 -6.58,-9.04 -6.58,-15.22 0,-3.62 0.83,-6.94 2.48,-9.94 1.67,-3.01 3.84,-5.39 6.51,-7.2 2.69,-1.81 5.7,-3.19 9.06,-4.12 2.48,-0.65 6.22,-1.26 11.21,-1.89 10.16,-1.19 17.67,-2.65 22.46,-4.31 0.05,-1.72 0.07,-2.81 0.07,-3.27 0,-5.1 -1.19,-8.7 -3.58,-10.8 -3.22,-2.83 -8.01,-4.24 -14.35,-4.24 -5.94,0 -10.33,1.05 -13.14,3.13 -2.84,2.07 -4.91,5.74 -6.27,11.04l-12.31 -1.72c1.12,-5.27 2.96,-9.54 5.54,-12.78 2.57,-3.24 6.3,-5.72 11.16,-7.48 4.84,-1.74 10.49,-2.63 16.88,-2.63 6.35,0 11.52,0.74 15.5,2.24 3.96,1.5 6.89,3.36 8.75,5.63 1.86,2.26 3.17,5.13 3.94,8.58 0.41,2.15 0.62,6.01 0.62,11.57l0 16.69c0,11.66 0.26,19.03 0.79,22.15 0.5,3.12 1.55,6.1 3.07,8.96l-13.16 0c-1.26,-2.65 -2.07,-5.75 -2.43,-9.3zm-1 -27.9c-4.58,1.86 -11.45,3.44 -20.6,4.72 -5.2,0.74 -8.87,1.57 -11.02,2.5 -2.15,0.93 -3.79,2.29 -4.96,4.05 -1.17,1.79 -1.77,3.77 -1.77,5.96 0,3.31 1.26,6.11 3.81,8.32 2.56,2.22 6.27,3.34 11.16,3.34 4.84,0 9.16,-1.05 12.95,-3.17 3.77,-2.1 6.56,-4.98 8.32,-8.63 1.36,-2.84 2.03,-7.01 2.03,-12.52l0.07 -4.58z"/>
  <path id="_5" class="fil2" d="M1645.09 1648.41l1.72 11.11c-3.53,0.74 -6.7,1.12 -9.47,1.12 -4.56,0 -8.08,-0.71 -10.61,-2.17 -2.5,-1.45 -4.27,-3.34 -5.3,-5.7 -1.02,-2.36 -1.52,-7.32 -1.52,-14.88l0 -42.78 -9.3 0 0 -9.73 9.3 0 0 -18.36 12.59 -7.56 0 25.92 12.59 0 0 9.73 -12.59 0 0 43.5c0,3.6 0.21,5.91 0.67,6.94 0.43,1.03 1.15,1.84 2.15,2.46 1,0.6 2.43,0.91 4.3,0.91 1.38,0 3.22,-0.17 5.48,-0.5z"/>
  <path id="_6" class="fil2" d="M1652.8 1622.51c0,-13.71 3.81,-23.87 11.47,-30.48 6.37,-5.48 14.16,-8.23 23.34,-8.23 10.18,0 18.53,3.34 25.02,10.02 6.46,6.65 9.7,15.88 9.7,27.64 0,9.54 -1.43,17.03 -4.29,22.49 -2.86,5.46 -7.04,9.7 -12.52,12.73 -5.46,3.03 -11.44,4.53 -17.91,4.53 -10.4,0 -18.79,-3.31 -25.2,-9.97 -6.41,-6.65 -9.61,-16.24 -9.61,-28.73zm12.88 0.02c0,9.49 2.07,16.59 6.22,21.29 4.17,4.72 9.39,7.08 15.71,7.08 6.25,0 11.45,-2.36 15.62,-7.11 4.15,-4.74 6.22,-11.97 6.22,-21.67 0,-9.16 -2.1,-16.1 -6.27,-20.8 -4.17,-4.72 -9.37,-7.08 -15.57,-7.08 -6.32,0 -11.54,2.34 -15.71,7.04 -4.15,4.7 -6.22,11.78 -6.22,21.25z"/>
  <path id="_7" class="fil2" d="M1736.95 1659.64l0 -74.26 11.3 0 0 11.37c2.89,-5.27 5.56,-8.75 8.01,-10.42 2.46,-1.69 5.15,-2.53 8.08,-2.53 4.25,0 8.56,1.33 12.95,3.98l-4.48 11.61c-3.06,-1.72 -6.11,-2.57 -9.16,-2.57 -2.74,0 -5.2,0.83 -7.37,2.48 -2.17,1.65 -3.72,3.94 -4.65,6.87 -1.41,4.46 -2.1,9.35 -2.1,14.67l0 38.8 -12.59 0z"/>
  <path id="_8" class="fil2" d="M1779.73 1637.46l12.44 -2c0.69,4.98 2.65,8.8 5.84,11.47 3.2,2.65 7.68,3.98 13.4,3.98 5.8,0 10.09,-1.17 12.9,-3.53 2.79,-2.34 4.2,-5.1 4.2,-8.28 0,-2.84 -1.26,-5.08 -3.77,-6.7 -1.76,-1.12 -6.06,-2.53 -12.88,-4.27 -9.2,-2.31 -15.57,-4.31 -19.15,-6.01 -3.56,-1.72 -6.25,-4.06 -8.09,-7.06 -1.83,-2.98 -2.76,-6.3 -2.76,-9.92 0,-3.31 0.76,-6.37 2.26,-9.18 1.53,-2.81 3.58,-5.15 6.18,-7.01 1.95,-1.43 4.63,-2.65 7.99,-3.65 3.39,-1 6.98,-1.5 10.85,-1.5 5.82,0 10.92,0.83 15.31,2.53 4.41,1.67 7.65,3.96 9.75,6.82 2.07,2.88 3.53,6.72 4.32,11.54l-12.31 1.72c-0.55,-3.86 -2.17,-6.89 -4.84,-9.06 -2.67,-2.17 -6.44,-3.24 -11.33,-3.24 -5.75,0 -9.87,0.95 -12.33,2.86 -2.45,1.91 -3.69,4.15 -3.69,6.7 0,1.62 0.5,3.1 1.52,4.41 1.03,1.33 2.63,2.46 4.82,3.34 1.26,0.48 4.94,1.55 11.09,3.22 8.87,2.36 15.07,4.31 18.6,5.82 3.53,1.5 6.3,3.72 8.3,6.58 2.03,2.89 3.03,6.46 3.03,10.76 0,4.17 -1.22,8.11 -3.67,11.8 -2.46,3.7 -5.98,6.56 -10.59,8.59 -4.63,2.02 -9.85,3.03 -15.67,3.03 -9.63,0 -17,-2 -22.06,-5.99 -5.06,-4 -8.28,-9.92 -9.68,-17.76z"/>
  <line class="fil1 str17" x1="3338.63" y1="696.3" x2="3338.63" y2= "1061.74" />
  <path class="fil3" d="M3256.02 914.95l-7.33 0 0 -46.7c-1.76,1.7 -4.08,3.38 -6.94,5.06 -2.86,1.68 -5.44,2.94 -7.72,3.78l0 -7.08c4.1,-1.92 7.68,-4.25 10.75,-7 3.07,-2.74 5.25,-5.39 6.53,-7.97l4.72 0 0 59.92z"/>
  <path id="_1_108" class="fil3" d="M3296.19 914.95l-7.33 0 0 -46.7c-1.76,1.7 -4.08,3.38 -6.94,5.06 -2.86,1.68 -5.44,2.94 -7.72,3.78l0 -7.08c4.1,-1.92 7.68,-4.25 10.75,-7 3.07,-2.74 5.25,-5.39 6.53,-7.97l4.72 0 0 59.92z"/>
  <path id="_2_109" class="fil3" d="M3311.41 914.95l22.89 -59.67 8.68 0 24.29 59.67 -8.98 0 -6.91 -18.08 -25.12 0 -6.47 18.08 -8.38 0zm17.17 -24.5l20.33 0 -6.22 -16.54c-1.87,-5.03 -3.29,-9.18 -4.28,-12.46 -0.82,3.89 -1.91,7.71 -3.29,11.48l-6.54 17.52z"/>
  <path id="_3_110" class="fil3" d="M3394.03 914.95l0 -14.25 -25.92 0 0 -6.75 27.25 -38.67 6 0 0 38.67 8.08 0 0 6.75 -8.08 0 0 14.25 -7.33 0zm0 -21l0 -26.85 -18.71 26.85 18.71 0z"/>
  <path id="_4_111" class="fil3" d="M3455.04 869.87l-7.25 0.58c-0.65,-2.87 -1.58,-4.97 -2.79,-6.28 -1.99,-2.09 -4.44,-3.14 -7.36,-3.14 -2.35,0 -4.43,0.65 -6.22,1.96 -2.3,1.68 -4.11,4.13 -5.46,7.35 -1.33,3.24 -2.03,7.83 -2.08,13.79 1.76,-2.68 3.93,-4.68 6.48,-5.97 2.56,-1.31 5.22,-1.96 8.03,-1.96 4.89,0 9.06,1.81 12.5,5.41 3.43,3.59 5.15,8.24 5.15,13.94 0,3.75 -0.8,7.22 -2.42,10.44 -1.62,3.22 -3.83,5.68 -6.67,7.39 -2.82,1.71 -6.03,2.57 -9.61,2.57 -6.1,0 -11.08,-2.25 -14.94,-6.74 -3.85,-4.48 -5.78,-11.89 -5.78,-22.19 0,-11.53 2.14,-19.92 6.41,-25.15 3.72,-4.56 8.74,-6.83 15.06,-6.83 4.69,0 8.56,1.32 11.56,3.94 3,2.63 4.81,6.25 5.4,10.89zm-30 25.75c0,2.53 0.54,4.94 1.61,7.25 1.07,2.3 2.57,4.06 4.47,5.26 1.92,1.21 3.94,1.82 6.1,1.82 3.13,0 5.79,-1.25 8,-3.75 2.21,-2.5 3.32,-5.89 3.32,-10.18 0,-4.13 -1.09,-7.38 -3.28,-9.75 -2.18,-2.37 -4.96,-3.57 -8.33,-3.57 -3.31,0 -6.13,1.2 -8.43,3.57 -2.31,2.37 -3.46,5.49 -3.46,9.35z"/>
 </g>
</svg>
